<?xml version="1.0" standalone="no"?>
<!DOCTYPE svg PUBLIC "-//W3C//DTD SVG 1.1//EN" "http://www.w3.org/Graphics/SVG/1.1/DTD/svg11.dtd" >
<svg xmlns="http://www.w3.org/2000/svg" xmlns:xlink="http://www.w3.org/1999/xlink" version="1.1">
<metadata>
Created by FontForge 20170731 at Fri Oct 27 11:23:29 2023
 By Aleksey,,,
Sunday Morning (c) (MJType). 2023. All Rights Reserved
</metadata>
<defs>
<font id="SundayMorning" horiz-adv-x="0" >
  <font-face 
    font-family="Sunday Morning"
    font-weight="400"
    font-stretch="normal"
    units-per-em="1000"
    panose-1="0 0 0 0 0 0 0 0 0 0"
    ascent="800"
    descent="-200"
    x-height="402"
    cap-height="617"
    bbox="-384.133 -209.5 550 747.385"
    underline-thickness="0"
    underline-position="0"
    unicode-range="U+000A-2212"
  />
<missing-glyph horiz-adv-x="527" 
 />
    <glyph glyph-name=".notdef" horiz-adv-x="527" 
 />
    <glyph glyph-name=".null" 
 />
    <glyph glyph-name=".null" 
 />
    <glyph glyph-name="uni000D" unicode="&#xd;" 
 />
    <glyph glyph-name="uni000A" unicode="&#xa;" 
 />
    <glyph glyph-name="space" unicode=" " horiz-adv-x="250" 
 />
    <glyph glyph-name="exclam" unicode="!" horiz-adv-x="183" 
d="M122 209q0 8 -0.5 26.5t-1 42.5t-1 50.5t-0.5 50.5v42.5v26.5q0 20 1 39t5 38q17 11 16.5 30.5t-19.5 28.5q-5 2 -12.5 2.5t-13.5 -2.5q-9 -4 -17.5 -10.5t-13.5 -15.5q-10 -22 -11 -44q-4 -28 -4.5 -56t0.5 -57q0 -48 1.5 -96t3.5 -96q1 -6 2.5 -12t6.5 -11q8 -8 18 -10
t19 1.5t15 11.5t6 20zM90 51q9 2 16 8t9.5 14t1 17t-8.5 16q-13 13 -31 11.5t-26 -18.5q-10 -20 3 -36t36 -12z" />
    <glyph glyph-name="quotedbl" unicode="&#x22;" horiz-adv-x="263" 
d="M86 494q10 3 16.5 10t8 16t-2 18t-12.5 15q1 8 3.5 23.5t7.5 20.5q12 13 7.5 31t-21.5 23q-23 6 -38 -13t-21 -43q-3 -11 -4.5 -23t-2.5 -24q-2 -21 13 -37q8 -9 21 -15t25 -2zM219 488q11 11 9 25q0 3 0.5 12t0.5 19.5t0.5 19.5t0.5 12q9 16 2 32q-5 11 -14 15.5
t-18.5 4.5t-18.5 -5.5t-14 -16.5q-3 -6 -4.5 -19.5t-2.5 -28t-0.5 -27.5t1.5 -20q2 -11 8 -19t14.5 -11.5t18 -2t17.5 9.5z" />
    <glyph glyph-name="quotedbl" unicode="&#x201f;" horiz-adv-x="263" 
d="M86 494q10 3 16.5 10t8 16t-2 18t-12.5 15q1 8 3.5 23.5t7.5 20.5q12 13 7.5 31t-21.5 23q-23 6 -38 -13t-21 -43q-3 -11 -4.5 -23t-2.5 -24q-2 -21 13 -37q8 -9 21 -15t25 -2zM219 488q11 11 9 25q0 3 0.5 12t0.5 19.5t0.5 19.5t0.5 12q9 16 2 32q-5 11 -14 15.5
t-18.5 4.5t-18.5 -5.5t-14 -16.5q-3 -6 -4.5 -19.5t-2.5 -28t-0.5 -27.5t1.5 -20q2 -11 8 -19t14.5 -11.5t18 -2t17.5 9.5z" />
    <glyph glyph-name="quotedbl" unicode="&#x201e;" horiz-adv-x="263" 
d="M86 494q10 3 16.5 10t8 16t-2 18t-12.5 15q1 8 3.5 23.5t7.5 20.5q12 13 7.5 31t-21.5 23q-23 6 -38 -13t-21 -43q-3 -11 -4.5 -23t-2.5 -24q-2 -21 13 -37q8 -9 21 -15t25 -2zM219 488q11 11 9 25q0 3 0.5 12t0.5 19.5t0.5 19.5t0.5 12q9 16 2 32q-5 11 -14 15.5
t-18.5 4.5t-18.5 -5.5t-14 -16.5q-3 -6 -4.5 -19.5t-2.5 -28t-0.5 -27.5t1.5 -20q2 -11 8 -19t14.5 -11.5t18 -2t17.5 9.5z" />
    <glyph glyph-name="quotedbl" unicode="&#x201d;" horiz-adv-x="263" 
d="M86 494q10 3 16.5 10t8 16t-2 18t-12.5 15q1 8 3.5 23.5t7.5 20.5q12 13 7.5 31t-21.5 23q-23 6 -38 -13t-21 -43q-3 -11 -4.5 -23t-2.5 -24q-2 -21 13 -37q8 -9 21 -15t25 -2zM219 488q11 11 9 25q0 3 0.5 12t0.5 19.5t0.5 19.5t0.5 12q9 16 2 32q-5 11 -14 15.5
t-18.5 4.5t-18.5 -5.5t-14 -16.5q-3 -6 -4.5 -19.5t-2.5 -28t-0.5 -27.5t1.5 -20q2 -11 8 -19t14.5 -11.5t18 -2t17.5 9.5z" />
    <glyph glyph-name="quotedbl" unicode="&#x201c;" horiz-adv-x="263" 
d="M86 494q10 3 16.5 10t8 16t-2 18t-12.5 15q1 8 3.5 23.5t7.5 20.5q12 13 7.5 31t-21.5 23q-23 6 -38 -13t-21 -43q-3 -11 -4.5 -23t-2.5 -24q-2 -21 13 -37q8 -9 21 -15t25 -2zM219 488q11 11 9 25q0 3 0.5 12t0.5 19.5t0.5 19.5t0.5 12q9 16 2 32q-5 11 -14 15.5
t-18.5 4.5t-18.5 -5.5t-14 -16.5q-3 -6 -4.5 -19.5t-2.5 -28t-0.5 -27.5t1.5 -20q2 -11 8 -19t14.5 -11.5t18 -2t17.5 9.5z" />
    <glyph glyph-name="quotedbl" unicode="&#xbb;" horiz-adv-x="263" 
d="M86 494q10 3 16.5 10t8 16t-2 18t-12.5 15q1 8 3.5 23.5t7.5 20.5q12 13 7.5 31t-21.5 23q-23 6 -38 -13t-21 -43q-3 -11 -4.5 -23t-2.5 -24q-2 -21 13 -37q8 -9 21 -15t25 -2zM219 488q11 11 9 25q0 3 0.5 12t0.5 19.5t0.5 19.5t0.5 12q9 16 2 32q-5 11 -14 15.5
t-18.5 4.5t-18.5 -5.5t-14 -16.5q-3 -6 -4.5 -19.5t-2.5 -28t-0.5 -27.5t1.5 -20q2 -11 8 -19t14.5 -11.5t18 -2t17.5 9.5z" />
    <glyph glyph-name="quotedbl" unicode="&#xab;" horiz-adv-x="263" 
d="M86 494q10 3 16.5 10t8 16t-2 18t-12.5 15q1 8 3.5 23.5t7.5 20.5q12 13 7.5 31t-21.5 23q-23 6 -38 -13t-21 -43q-3 -11 -4.5 -23t-2.5 -24q-2 -21 13 -37q8 -9 21 -15t25 -2zM219 488q11 11 9 25q0 3 0.5 12t0.5 19.5t0.5 19.5t0.5 12q9 16 2 32q-5 11 -14 15.5
t-18.5 4.5t-18.5 -5.5t-14 -16.5q-3 -6 -4.5 -19.5t-2.5 -28t-0.5 -27.5t1.5 -20q2 -11 8 -19t14.5 -11.5t18 -2t17.5 9.5z" />
    <glyph glyph-name="numbersign" unicode="#" horiz-adv-x="566" 
d="M345 124v5q9 42 21.5 81t24.5 79q29 5 58 10.5t58 10.5q11 2 18 8.5t10 15.5t1 18.5t-10 16.5q-10 10 -25 10q-4 0 -16 -1.5t-26 -3.5t-26 -3.5t-16 -1.5q7 20 14 38.5t15 38.5q8 -1 17 -1.5t16 4.5q16 9 17 27t-14 29q8 5 14.5 10t8.5 13q5 15 -3 28.5t-24 14.5
q-15 2 -29 -7.5t-23 -21.5q-5 -6 -9 -12t-8 -13q-32 2 -63 0t-62 -6q-2 0 -0.5 2.5t3.5 4.5q6 9 6 19.5t-4.5 18.5t-13.5 12.5t-20 2.5t-19 -10.5t-13 -17.5l-4 -8l-6.5 -13t-6 -13t-3.5 -8q-17 -2 -34 -3t-33 -6q-10 -4 -16.5 -11.5t-8.5 -16.5t1 -18t11 -16
q6 -5 13.5 -9.5t15.5 -3.5q12 2 20 7q-9 -23 -17.5 -47t-16.5 -48q-10 -1 -19.5 -2t-20.5 -1q-1 0 -5 1.5t-5 1.5q-7 2 -21.5 1t-20.5 -5q-9 -5 -13.5 -13t-4.5 -16.5t4 -16.5t13 -12q17 -8 35.5 -9t37.5 -1q-3 -10 -6 -28t-4.5 -37t0 -36t7.5 -26q7 -10 17 -14.5t20 -3.5
t18.5 7t11.5 18q2 8 -0.5 16t-7.5 15q2 24 7.5 47.5t11.5 47.5q31 2 61.5 6t60.5 8q-2 -8 -8 -29.5t-12.5 -45.5t-11.5 -45.5t-6 -30.5q-1 -12 6.5 -24t18.5 -15q18 -5 32 6.5t11 30.5zM252 435q30 4 60.5 7.5t61.5 5.5q-18 -45 -33 -90q-31 -4 -61.5 -8.5t-61.5 -9.5
q8 24 16.5 48t17.5 47z" />
    <glyph glyph-name="dollar" unicode="$" horiz-adv-x="419" 
d="M237 -21q2 8 0.5 15.5t-2.5 15.5t-0.5 14.5t0.5 14.5q31 3 61.5 13.5t52.5 32.5q23 25 17 57q-3 15 -11.5 28.5t-17.5 26.5q-18 23 -39 44t-43 41q5 48 8 96t7 96q13 -8 23.5 -18t23.5 -17q2 -2 10.5 -6t11.5 -5q15 -4 26 2.5t15.5 17t1 22.5t-17.5 19q-23 12 -42.5 30.5
t-44.5 28.5q3 22 9 43q3 14 -3.5 24t-17 14t-22.5 1t-19 -15q-2 -3 -4 -11.5t-4 -18.5t-3.5 -19t-1.5 -13q-32 -4 -62 -15.5t-56 -31.5q-14 -11 -25.5 -27.5t-14.5 -34.5q-2 -14 0.5 -28t7.5 -27q10 -19 26 -38q23 -26 48 -50t51 -47q-3 -37 -5.5 -73t-5.5 -72
q-16 2 -31.5 5.5t-29.5 11.5q-8 6 -14 15t-16 12q-10 4 -19.5 1t-16.5 -9.5t-9 -16t2 -19.5q7 -14 17 -26t23 -20q20 -12 43 -17.5t46 -7.5q-1 -10 -0.5 -23t3 -25t8 -20.5t15.5 -11.5q13 -4 25 1.5t16 19.5zM143 394q-5 5 -13 17.5t-7 19.5q1 10 14.5 19t22.5 14
q10 5 21.5 9t22.5 6l-6 -68t-5 -68q-13 12 -25.5 24.5t-24.5 26.5zM248 195q14 -14 27.5 -28.5t23.5 -31.5q3 -3 2 -4q-7 -7 -15.5 -10.5t-17.5 -6.5q-14 -5 -28 -6q2 22 4 43.5t4 43.5z" />
    <glyph glyph-name="percent" unicode="%" horiz-adv-x="516" 
d="M173 311q15 8 27 21t20.5 29.5t13 34t3.5 34.5q-1 14 -5 27t-12 24q-9 14 -21 26.5t-27 18.5q-3 1 -12 5t-11 5q-13 2 -26 -2t-24 -10q-20 -11 -35.5 -28t-23.5 -37q-8 -23 -5 -48t12 -47q8 -17 20 -33t29 -24q37 -18 77 4zM150 54q14 3 25 11.5t22 17.5q12 9 12.5 24
t-10.5 26q48 77 98 148q13 19 26 37.5t27 36.5q12 15 25 30t29 27q7 6 16.5 7t17.5 6q10 6 14 16t2 19.5t-9 17t-19 8.5q-11 1 -27 -4q-20 -5 -36 -18t-30 -27q-41 -41 -73.5 -87.5t-64.5 -94.5q-8 -12 -23 -34t-30 -46.5t-26.5 -48t-11.5 -37.5q1 -18 15 -29t31 -6z
M127 366q-6 2 -12 13t-9 17q-3 9 -5 19t0 20q3 9 10 16.5t15 12.5q13 -10 29 -6q6 -6 11 -14t6 -16q1 -13 -4 -25.5t-13 -21.5q-5 -5 -13 -11t-15 -4zM470 90q11 43 4 84q-3 11 -7 22.5t-12 20.5q-2 2 -2 6q-5 8 -14 15t-18 6q-1 -1 -3.5 -1h-3.5q-11 3 -22.5 4t-23.5 1
q-19 -1 -28 -17t0 -33q-15 -24 -25 -56q-8 -24 -7.5 -51t11.5 -50q7 -14 19 -24.5t27 -13.5q18 -3 35 3.5t31 19.5t24 29.5t15 34.5zM389 153q7 12 17 18q5 -12 5.5 -27t-2.5 -29t-10.5 -26t-19.5 -18q-8 19 -4 41t14 41z" />
    <glyph glyph-name="ampersand" unicode="&#x26;" horiz-adv-x="512" 
d="M396 60q-3 3 -11.5 9.5t-18 13.5t-18.5 13.5t-12 8.5q36 30 70 62t63 69l10 14t6 15q1 12 -5 21.5t-15 13.5t-19.5 2t-18.5 -12q-30 -41 -67 -75.5t-77 -65.5q-18 15 -35.5 31t-34.5 33q26 29 51.5 58.5t48.5 60.5q17 24 32 50t24 55q5 18 7.5 36.5t-1.5 36.5
q-2 11 -6.5 21t-12.5 18q-16 21 -43 24q-20 3 -40.5 -1.5t-39.5 -12.5q-59 -25 -106 -63q-17 -14 -32 -29.5t-26 -34.5q-12 -22 -16 -47.5t1 -49.5q7 -35 24.5 -67t40.5 -60q-21 -25 -41 -51.5t-31 -57.5q-5 -14 -5 -30t7 -29q7 -12 19 -20t25 -11q18 -5 37.5 -4.5t37.5 5.5
q29 8 56 21t52 30q17 -12 34 -22.5t34 -22.5q2 -1 7.5 -5t7.5 -5q14 -6 25.5 -2t18 13t5.5 21t-12 22zM124 347q-5 17 0 34q5 19 23.5 38.5t42 36.5t48.5 29.5t44 18.5q5 1 12 2.5t11 -1.5q4 -4 4 -14t-1 -15q-5 -26 -17 -50t-28 -46q-23 -30 -47 -58.5t-49 -57.5
q-14 19 -26 39.5t-17 43.5zM111 75q4 11 11 23q20 32 43 58q26 -27 54 -51q-23 -14 -47.5 -23.5t-50.5 -8.5q-4 0 -10 2z" />
    <glyph glyph-name="quotesingle" unicode="'" horiz-adv-x="135" 
d="M98 508q2 8 0 16.5t-3 16.5q0 14 1 27.5t4 26.5q2 7 5 13.5t2 13.5q-2 14 -11 24t-23 8q-8 -1 -16.5 -5t-11.5 -12q-11 -24 -14.5 -51.5t-1.5 -53.5q1 -5 3 -18t5 -18q7 -9 16.5 -12.5t19 -2t16.5 8.5t9 18z" />
    <glyph glyph-name="quotesingle" unicode="&#x203a;" horiz-adv-x="135" 
d="M98 508q2 8 0 16.5t-3 16.5q0 14 1 27.5t4 26.5q2 7 5 13.5t2 13.5q-2 14 -11 24t-23 8q-8 -1 -16.5 -5t-11.5 -12q-11 -24 -14.5 -51.5t-1.5 -53.5q1 -5 3 -18t5 -18q7 -9 16.5 -12.5t19 -2t16.5 8.5t9 18z" />
    <glyph glyph-name="quotesingle" unicode="&#x2039;" horiz-adv-x="135" 
d="M98 508q2 8 0 16.5t-3 16.5q0 14 1 27.5t4 26.5q2 7 5 13.5t2 13.5q-2 14 -11 24t-23 8q-8 -1 -16.5 -5t-11.5 -12q-11 -24 -14.5 -51.5t-1.5 -53.5q1 -5 3 -18t5 -18q7 -9 16.5 -12.5t19 -2t16.5 8.5t9 18z" />
    <glyph glyph-name="quotesingle" unicode="&#x201b;" horiz-adv-x="135" 
d="M98 508q2 8 0 16.5t-3 16.5q0 14 1 27.5t4 26.5q2 7 5 13.5t2 13.5q-2 14 -11 24t-23 8q-8 -1 -16.5 -5t-11.5 -12q-11 -24 -14.5 -51.5t-1.5 -53.5q1 -5 3 -18t5 -18q7 -9 16.5 -12.5t19 -2t16.5 8.5t9 18z" />
    <glyph glyph-name="quotesingle" unicode="&#x201a;" horiz-adv-x="135" 
d="M98 508q2 8 0 16.5t-3 16.5q0 14 1 27.5t4 26.5q2 7 5 13.5t2 13.5q-2 14 -11 24t-23 8q-8 -1 -16.5 -5t-11.5 -12q-11 -24 -14.5 -51.5t-1.5 -53.5q1 -5 3 -18t5 -18q7 -9 16.5 -12.5t19 -2t16.5 8.5t9 18z" />
    <glyph glyph-name="quotesingle" unicode="&#x2019;" horiz-adv-x="135" 
d="M98 508q2 8 0 16.5t-3 16.5q0 14 1 27.5t4 26.5q2 7 5 13.5t2 13.5q-2 14 -11 24t-23 8q-8 -1 -16.5 -5t-11.5 -12q-11 -24 -14.5 -51.5t-1.5 -53.5q1 -5 3 -18t5 -18q7 -9 16.5 -12.5t19 -2t16.5 8.5t9 18z" />
    <glyph glyph-name="quotesingle" unicode="&#x2018;" horiz-adv-x="135" 
d="M98 508q2 8 0 16.5t-3 16.5q0 14 1 27.5t4 26.5q2 7 5 13.5t2 13.5q-2 14 -11 24t-23 8q-8 -1 -16.5 -5t-11.5 -12q-11 -24 -14.5 -51.5t-1.5 -53.5q1 -5 3 -18t5 -18q7 -9 16.5 -12.5t19 -2t16.5 8.5t9 18z" />
    <glyph glyph-name="parenleft" unicode="(" horiz-adv-x="264" 
d="M225 8q-15 12 -30 25t-26 30q-17 24 -25.5 51.5t-13.5 56.5q-18 95 -10 195q4 51 15 101t27 98q2 5 5 14.5t7 20t8.5 20t8.5 12.5q2 3 12 8t13 7q14 7 17 19.5t-2 23t-16 16.5t-26 1q-2 -1 -7.5 -3.5t-11.5 -5.5l-11 -5.5t-7 -4.5q-16 -11 -26.5 -28t-17.5 -35
q-40 -103 -54 -215q-6 -54 -5 -107.5t8 -107.5q6 -45 19 -89.5t39 -81.5q5 -6 15 -17.5t21.5 -22.5t23.5 -20t19 -12q13 -5 24 0t16 14.5t3.5 21t-12.5 20.5z" />
    <glyph glyph-name="parenright" unicode=")" horiz-adv-x="257" 
d="M142 -124q1 3 3.5 9.5t5.5 14t5 14t3 9.5q35 103 43.5 213t-0.5 219q-5 57 -14.5 113.5t-32.5 109.5q-11 26 -24 50.5t-26 48.5q8 17 -1.5 32.5t-28.5 15.5q-11 0 -23 -4.5t-17 -14.5q-5 -9 -5 -19.5t3 -19.5q1 -4 6.5 -16t12 -25t12 -24.5t7.5 -16.5q28 -60 40.5 -125
t17.5 -131q4 -54 4.5 -108.5t-4.5 -109.5q-8 -91 -38 -178q-2 -4 -6 -17t-5 -17q-3 -14 4 -24t17.5 -13.5t22 -0.5t18.5 15z" />
    <glyph glyph-name="plus" unicode="+" horiz-adv-x="347" 
d="M214 261q-2 36 -3.5 72.5t-1.5 72.5q21 5 42 8.5t42 7.5q11 2 17.5 8.5t9.5 15.5t1 19t-10 17q-12 10 -25 10q-20 -2 -38.5 -5.5t-37.5 -8.5l2 24t4 24q4 13 -1.5 25.5t-19.5 16.5q-8 2 -17.5 0.5t-14.5 -7.5q-7 -7 -10.5 -16t-4.5 -18q-2 -17 -3 -32.5t-2 -31.5
q-20 -5 -40 -10.5t-39 -14.5q-8 -4 -21.5 -15.5t-15.5 -20.5q-3 -12 1.5 -22t12.5 -16t18.5 -6t20.5 8q1 1 4 4.5t5 4.5q3 2 10 4t15.5 4.5t16.5 4.5t11 3q0 -34 1 -68t4 -69q2 -11 12 -19t21 -8q14 0 24.5 10t9.5 24z" />
    <glyph glyph-name="comma" unicode="," horiz-adv-x="93" 
d="M22 -120q12 26 25 50.5t30 47.5q8 12 5 23.5t-11.5 19t-20.5 8.5t-23 -8q-3 -3 -8.5 -10.5t-11 -16t-10 -16.5t-6.5 -12q-2 -5 -7.5 -14.5t-10.5 -20.5t-9 -21t-4 -15q0 -13 7.5 -21t18 -10.5t20.5 1t16 15.5z" />
    <glyph glyph-name="hyphen" unicode="-" horiz-adv-x="327" 
d="M85 300q48 8 96 13t97 11q10 0 19 9q8 8 9.5 18.5t-2 19.5t-12 15t-20.5 6q-51 -1 -100.5 -9t-99.5 -16q-5 -1 -18.5 -4t-18.5 -6q-10 -7 -13.5 -17.5t-0.5 -20t11 -16.5t21 -7q3 0 16 1.5t16 2.5z" />
    <glyph glyph-name="period" unicode="." horiz-adv-x="110" 
d="M85 82q-2 1 -6 5l-5 5q-11 11 -24 9.5t-21.5 -10t-10.5 -21.5t9 -24l10 -10t12 -7q12 -3 22 1t16 12.5t6 19t-8 20.5z" />
    <glyph glyph-name="zero" unicode="0" horiz-adv-x="386" 
d="M178 74q23 5 44 18.5t37 31.5q24 27 39.5 61.5t25.5 70.5q10 37 16 75.5t4 77.5q-2 26 -5.5 51t-14.5 48q-16 36 -46 62q-11 9 -24.5 15.5t-27.5 6.5q-27 -2 -44 -25q-13 2 -26.5 0t-24.5 -9t-19.5 -17.5t-13.5 -22.5q-6 -13 -10 -26t-8 -27q-11 -38 -19 -77t-13 -79
q-4 -33 -5.5 -66.5t3.5 -66.5q4 -23 14.5 -46t29.5 -37q39 -32 88 -19zM136 144q-6 5 -10 11.5t-7 13.5q-6 17 -7 35t0 36q2 24 5 48t8 48q2 10 7 33.5t11 49t12.5 48t12.5 31.5q2 2 6 1.5t7 -1.5q10 -2 19 -5t18 -1q17 3 25 19q18 -21 25 -44q6 -21 8 -43.5t1 -44.5
q-3 -64 -23 -127q-8 -24 -20 -48t-30 -42q-13 -13 -33.5 -20.5t-34.5 2.5z" />
    <glyph glyph-name="one" unicode="1" horiz-adv-x="356" 
d="M192 126q28 11 56.5 19t57.5 16q9 3 18 13q11 17 1.5 35t-29.5 18q-4 0 -15 -2t-22.5 -4.5t-22 -5t-15.5 -3.5q-5 61 -1 122t13 121q4 26 8 51.5t6 51.5q0 8 -0.5 15t-3.5 15q-5 15 -19 22t-29 2q-8 -2 -15 -7.5t-14 -11.5q-6 -5 -19 -14t-28 -18.5t-29 -17t-22 -8.5
q-5 -1 -9.5 -1t-8.5 -2q-13 -6 -18 -16.5t-3 -21t10.5 -18.5t22.5 -8q14 -1 27 3.5t25 10.5q16 8 30.5 16.5t28.5 18.5q-5 -34 -10.5 -67t-8.5 -67q-5 -50 -5.5 -99t6.5 -98q-6 -3 -18 -8t-24.5 -11.5t-23.5 -13t-14 -12.5q-10 -17 -0.5 -33.5t28.5 -16.5q6 0 19 4.5
t26.5 10.5t25.5 12t18 8z" />
    <glyph glyph-name="two" unicode="2" horiz-adv-x="416" 
d="M103 139q19 11 35.5 26t31.5 32q19 11 38.5 19t40.5 12q20 3 40.5 2.5t40.5 -1.5q11 -1 21.5 -2t18.5 4q9 6 13 14.5t3 17.5t-6.5 16.5t-15.5 11.5q-6 2 -18.5 3.5t-27 3t-27.5 2t-19 0.5q-7 0 -13.5 -0.5t-12.5 -1.5q29 48 49.5 102.5t25.5 111.5q2 26 0.5 53t-15.5 50
q-11 18 -30 30.5t-40 15.5q-23 3 -51.5 -2t-55.5 -16.5t-49.5 -28t-33.5 -36.5q-11 -18 -9.5 -38.5t18.5 -31.5q8 -5 17.5 -4.5t17 5t12 12t3.5 17.5q-2 5 -1 8q1 1 3 3.5t3 3.5q19 17 43 26.5t49 13.5q10 2 19.5 1t17.5 -6q8 -6 11 -17t3.5 -24t-0.5 -26.5t-3 -22.5
q-11 -64 -37 -119q-16 -33 -36.5 -63.5t-44.5 -59.5q-25 -14 -52 -33q-11 -8 -21.5 -17t-17.5 -20q-11 -20 -0.5 -38.5t32.5 -18.5q15 0 30 10z" />
    <glyph glyph-name="three" unicode="3" horiz-adv-x="459" 
d="M300 165q31 20 57.5 45t45.5 56q9 15 14 32t3 34q-2 16 -13 30t-25 22q-16 8 -34.5 10.5t-36.5 2.5q11 12 21 25.5t20 27.5q15 22 27.5 45.5t17.5 49.5q2 15 0 31t-9 30q-14 26 -42 39q-17 9 -36 13.5t-39 6.5q-26 2 -52 -1.5t-49 -14.5q-19 -9 -43 -25t-45 -36
t-35.5 -43t-15.5 -44v-12.5t2 -12.5q5 -12 15 -17.5t20.5 -4.5t19 8t9.5 20v11t1 10q5 11 15 22q12 14 26.5 26t29.5 23q23 14 50 20t53 2q6 -1 14.5 -2.5t17 -4.5t15.5 -7t10 -9q3 -6 1.5 -15.5t-5.5 -19.5t-9 -19.5t-9 -15.5q-20 -33 -50 -66q-11 -13 -22.5 -24.5
t-25.5 -21.5q-8 -6 -17.5 -11.5t-14.5 -14.5q-8 -14 -2.5 -29t20.5 -21q11 -3 24 0q27 5 54.5 9.5t56.5 2.5q2 0 7.5 -0.5t7.5 -1.5q7 -2 7 -5q-1 -5 -3.5 -10t-5.5 -10q-10 -17 -23.5 -31t-28.5 -26q-13 -11 -28 -20t-32 -14q-29 -8 -56 -2q-4 19 -21 26t-32 -4
q-10 -7 -13 -17q-4 -16 1 -31.5t18 -26.5q15 -13 37.5 -17t46.5 -1.5t47.5 10.5t40.5 19z" />
    <glyph glyph-name="four" unicode="4" horiz-adv-x="438" 
d="M281 48q-1 2 -1 6q5 35 9.5 69.5t9.5 69.5q25 12 50 25t49 27q11 6 15 16.5t1 20.5t-11 17.5t-21 7.5q-5 0 -14.5 -4t-19.5 -9t-19 -10t-14 -7q2 5 4.5 16.5t7.5 14.5q10 7 13 17t1 19t-9.5 16t-19.5 8q-14 2 -23 -4q-14 -11 -21 -25q-12 -24 -18.5 -49.5t-12.5 -51.5
q-20 -10 -39.5 -19t-39.5 -17q-14 -6 -28.5 -11.5t-29.5 -9.5q1 6 7 21t13 31.5t14 30.5l10 20q33 65 69 129q2 3 7 12t10.5 18.5t11 18t8.5 11.5q4 4 9.5 4.5t9.5 3.5q9 6 13 15t3 18t-6.5 16.5t-16.5 10.5q-14 3 -28.5 -2.5t-25.5 -14.5q-12 -10 -29.5 -38t-36 -61
t-34 -63.5t-22.5 -44.5q-14 -27 -27.5 -55t-21.5 -57q-3 -12 -5 -24t0 -23t8.5 -22t17.5 -16q11 -6 25 -7t27 2q29 7 57 18t56 23q-4 -22 -6.5 -44.5t-4.5 -45.5q-1 -8 0 -17.5t5 -17.5q6 -12 17 -16t22 -1t18.5 12t6.5 22z" />
    <glyph glyph-name="five" unicode="5" horiz-adv-x="384" 
d="M177 134q42 20 78.5 51.5t54.5 73.5q13 29 18 61.5t-6 62.5q-6 21 -24 35q-12 10 -27.5 14t-31.5 6q-18 1 -35.5 -0.5t-34.5 1.5q-6 18 -4.5 37.5t1.5 38.5q0 2 -0.5 11t-0.5 11q39 5 78 8.5t78 9.5q15 2 22.5 12.5t6.5 22.5t-9.5 21.5t-23.5 9.5q-5 0 -20.5 -2.5
t-20.5 -2.5q-30 -5 -60.5 -8t-61.5 -5q-12 -2 -24 -3t-23 -6q-15 -8 -19.5 -23.5t3.5 -29.5q2 -2 3.5 -5l2.5 -5q2 -8 1.5 -14.5t-0.5 -14.5q-1 -17 -1.5 -34t2.5 -34q3 -13 9 -25.5t17 -20.5q15 -12 36 -15q17 -3 35 -2t35 0q5 0 14 -1t12 -4q5 -6 5 -20.5t-2 -22.5
q-4 -26 -18.5 -50t-34.5 -41q-9 -7 -23.5 -17t-30.5 -18t-31.5 -12.5t-26.5 -1.5q-6 2 -11 4.5t-10 4.5q-10 4 -19 2t-15.5 -8t-9.5 -15t0 -19q2 -8 9.5 -14.5t17.5 -11.5t20.5 -7.5t19.5 -3.5q21 -2 41 4t39 15z" />
    <glyph glyph-name="six" unicode="6" horiz-adv-x="387" 
d="M162 114q34 5 66.5 17t61.5 29q19 12 35 29t23 38q8 21 5.5 43.5t-11.5 42.5q-15 33 -41 61t-60 42q-20 8 -41.5 8.5t-41.5 -3.5q10 28 21 55t25 53q8 14 18 24q8 -9 18.5 -11.5t20 1t15.5 11.5t5 20q-1 11 -7 20.5t-14 17.5q-8 6 -17.5 9t-20.5 4q-12 1 -24.5 -6
t-24.5 -18t-21.5 -24t-15.5 -24q-15 -28 -27 -57.5t-22 -60.5q-15 -43 -27.5 -86t-17.5 -88q-4 -23 -4.5 -46.5t7.5 -45.5q12 -37 48 -51q16 -6 34 -6t35 2zM117 183q-9 4 -9 18.5v25.5q2 30 9.5 60t16.5 59q17 5 33.5 9t33.5 2q19 -2 35 -13q10 -7 20.5 -18t18.5 -23.5
t11.5 -26t0.5 -24.5t-12 -20q-10 -10 -22.5 -17t-25.5 -13q-9 -4 -24 -8.5t-31 -8.5t-31 -5t-24 3z" />
    <glyph glyph-name="seven" unicode="7" horiz-adv-x="423" 
d="M163 92q6 4 9.5 11.5t3.5 15.5v5q15 50 34.5 97t42.5 94q4 1 12.5 2.5t17.5 3t17 4t11 4.5q11 8 14.5 19t0.5 21t-12 16.5t-22 5.5q5 9 19.5 34.5t31 55t30.5 55t18 34.5q4 8 6.5 18t0.5 19q-3 23 -25 31q-15 4 -33 1q-9 -1 -33 -7.5t-51 -14.5t-50.5 -16t-32.5 -11
q-8 -2 -21 -6t-27 -7t-27 -4t-20 3q-12 7 -26 3.5t-20 -16.5q-8 -17 0.5 -31.5t25.5 -21.5q18 -7 38 -6.5t40 4.5q45 8 87.5 22.5t85.5 28.5q-26 -45 -53 -89.5t-51 -91.5q-8 -1 -17 -1.5t-17 -0.5q-10 12 -25 12q-8 0 -20 -6t-17 -11q-11 -13 -8 -29t17 -24
q12 -7 25.5 -8.5t27.5 -1.5q-5 -10 -15.5 -35.5t-21 -53.5t-19 -53.5t-9.5 -36.5q-1 -12 4 -22t13.5 -16t19 -6t20.5 7z" />
    <glyph glyph-name="eight" unicode="8" horiz-adv-x="421" 
d="M229 70q28 19 49 46.5t35 57.5q13 26 20 55t3 58q-2 12 -5.5 24t-9.5 23q17 31 29.5 64.5t21.5 67.5q8 31 10.5 64t-11.5 62q-9 17 -26 29.5t-37 16.5q-23 5 -48 1t-48 -10q-57 -16 -108 -49q-20 -13 -37 -29t-25 -37q-6 -14 -6 -29.5t6 -28.5q9 -22 29 -37
q20 -16 43 -26.5t46 -20.5q-23 -23 -39 -53t-24 -62q-10 -41 -8.5 -85t21.5 -80q17 -32 50 -38q17 -4 35.5 1t33.5 15zM254 408q-2 0 -6.5 -1t-6.5 1q-29 16 -60.5 28.5t-60.5 30.5q-4 2 -10.5 7.5t-6.5 10.5t4 10.5t10 10.5t12 9t10 7q49 32 107 46q6 1 14.5 2.5t17.5 1.5
t17 -1t12 -5q7 -6 7.5 -22t-0.5 -24q-4 -32 -14 -62.5t-22 -59.5q-10 10 -24 10zM173 121q-2 0 -3.5 3.5t-2.5 5.5q-11 26 -11 56t8 57q3 10 9 24t14 27.5t17.5 24.5t19.5 14q2 1 4 2.5t4 -0.5q2 -1 5 -2t1 -3q-5 -6 -10.5 -13t-7.5 -15q-2 -11 2.5 -20t12 -14t17.5 -5t19 6
q0 -15 -4.5 -30t-10.5 -29q-9 -22 -23 -42t-33 -35q-4 -4 -13 -9t-14 -3z" />
    <glyph glyph-name="nine" unicode="9" horiz-adv-x="410" 
d="M170 80q24 15 42 36q52 61 86 137h10t10 1q12 3 18.5 11t7.5 17.5t-3.5 19t-15.5 14.5q14 40 25.5 80.5t17.5 82.5q4 23 4 47.5t-8 46.5q-14 43 -57 58q-21 8 -44 9t-46 -3q-38 -6 -75 -25.5t-61 -49.5q-15 -18 -25.5 -40t-15.5 -46q-3 -16 -2 -32.5t5 -32.5
q8 -30 25 -57t41 -48t53 -34.5t60 -16.5q-13 -24 -27 -47t-31 -43q-3 -3 -7.5 -8t-10 -10t-10.5 -8.5t-9 -4.5q-6 -2 -12 -1.5t-12 -0.5q-15 -3 -21.5 -13.5t-5.5 -22t9.5 -21t23.5 -9.5q16 -1 32 2t29 12zM172 344q-22 14 -38 36t-23 46q-6 26 -1 48q5 21 19 39.5t32 31.5
q19 13 41.5 19.5t45.5 7.5q11 0 27 -3t21 -11q5 -9 5.5 -25t-1 -34t-5 -35t-5.5 -27q-15 -60 -39 -117q-20 1 -41 7t-38 17z" />
    <glyph glyph-name="colon" unicode=":" horiz-adv-x="132" 
d="M86 355q-16 6 -31.5 1.5t-19.5 -20.5q-5 -19 7 -32t32 -13q14 0 22.5 8t10.5 19t-3 21.5t-18 15.5zM74 3q11 3 18 11t8.5 17.5t-2.5 19t-15 14.5q-8 3 -21.5 3t-20.5 -5q-13 -9 -15 -21t3.5 -22t17.5 -15.5t27 -1.5z" />
    <glyph glyph-name="semicolon" unicode=";" horiz-adv-x="147" 
d="M87 335q4 8 2.5 17t-7.5 17q-12 14 -30.5 11t-26.5 -20q-2 -6 -2.5 -13.5t1.5 -13.5q10 -20 31.5 -19.5t31.5 21.5zM65 -82q2 2 8 12.5t8 12.5q8 12 18 23.5t20 22.5q11 12 9.5 24.5t-10 21t-21 10.5t-24.5 -8q-3 -2 -8 -8.5t-11 -13.5t-11 -13t-7 -9q-7 -9 -12.5 -18.5
t-11.5 -18.5q-8 -13 -4.5 -24.5t13 -18.5t22 -6.5t22.5 11.5z" />
    <glyph glyph-name="less" unicode="&#x3c;" horiz-adv-x="354" 
d="M317 184q-33 17 -67 32t-69 26q-4 2 -16 4.5t-25.5 5.5t-25 6.5t-15.5 5.5q0 3 1.5 10t4 14t5.5 13t4 9q3 7 12 23.5t19.5 34.5t20 33.5t14.5 21.5q5 2 11 3.5t11 5.5q9 8 11 18t-1.5 19.5t-12 15.5t-20.5 5q-10 -1 -20.5 -3.5t-18.5 -7.5q-9 -7 -22.5 -25.5t-26 -40.5
t-23 -43t-15.5 -32t-10 -23t-8 -25q-2 -12 -3 -25t4 -25q5 -11 13.5 -20.5t19.5 -15.5q17 -8 35.5 -12.5t36.5 -9.5q38 -11 74.5 -27t73.5 -32q15 -6 26.5 0.5t16.5 17.5t2 23.5t-17 19.5z" />
    <glyph glyph-name="equal" unicode="=" horiz-adv-x="398" 
d="M100 365q7 1 25 2.5t40.5 4t48 5.5t48.5 5.5t40.5 4.5t24.5 2q9 1 18.5 2t16.5 7q15 13 11.5 32t-22.5 26q-5 2 -16 2.5t-23 0t-23 -1.5t-16 -2q-56 -5 -110 -13t-109 -16q-15 -2 -22 -12.5t-6 -22.5t9.5 -21.5t23.5 -9.5q2 0 8 1t13 1.5t12.5 1.5t7.5 1zM130 179
q45 6 89 11.5t89 10.5q14 1 21.5 10.5t7.5 21.5t-7 22t-21 13q-10 2 -33 0t-49 -5.5t-49 -7t-33 -5.5q-6 -1 -18 -2t-24.5 -3.5t-23.5 -5.5t-16 -7q-9 -7 -11 -17t1 -19t11 -15.5t20 -6.5q2 0 9 0.5t14.5 1.5t14 2t8.5 1z" />
    <glyph glyph-name="greater" unicode="&#x3e;" horiz-adv-x="373" 
d="M98 118q2 2 9 7t9 7q49 46 101 88t98 91q11 11 19.5 23.5t10.5 26.5q3 19 -6 36q-5 9 -13.5 16.5t-16.5 13.5q-21 15 -45 24.5t-48 17.5q-29 10 -59 19t-59 19q-9 11 -22.5 13t-26.5 -5q-14 -8 -18 -23.5t7 -28.5q5 -7 13.5 -11t16.5 -7q6 -3 26 -10.5t43 -15.5t43 -15
t26 -9q17 -7 33 -13.5t32 -16.5q-8 -9 -16 -17.5t-16 -16.5q-41 -38 -84 -72.5t-85 -71.5q-4 -3 -12 -13t-10 -15q-4 -11 -1 -21.5t11 -17.5t19 -8t21 6z" />
    <glyph glyph-name="question" unicode="?" horiz-adv-x="299" 
d="M87 135q7 4 12 10.5t6 14.5q0 2 -0.5 5.5t0.5 4.5q26 34 49.5 69.5t45.5 72.5q14 24 27 49t24 51q7 16 11 32.5t5 33.5q1 32 -15.5 53.5t-42.5 32.5t-57.5 11.5t-60.5 -11.5q-6 -2 -12 -5t-11 -5q-9 -4 -13 -12t-4 -17t4 -17.5t13 -12.5q16 -7 28 -1q11 5 22 9t23 4
q21 2 38 -4q5 -2 9.5 -4.5t7.5 -7.5q6 -8 2 -25t-7 -26q-11 -30 -26.5 -57.5t-32.5 -54.5q-16 -26 -32.5 -51.5t-34.5 -50.5q-8 -11 -16 -20.5t-13 -21.5q-4 -12 -1 -23t11 -18.5t19 -10t22 2.5zM150 1q13 9 15 21t-3.5 22t-17.5 15.5t-27 1.5t-21.5 -15t-4.5 -22.5
t11.5 -20t25.5 -7.5q5 0 11 1t11 4z" />
    <glyph glyph-name="at" unicode="@" horiz-adv-x="562" 
d="M285 12q12 2 24 5.5t19 13.5q7 11 6.5 22t-6.5 19t-15.5 12t-21.5 -1q-18 -6 -37 -6t-38 4q-14 2 -26.5 9.5t-23.5 16.5q-20 19 -33 44.5t-18 52.5q-6 36 -4 74t17 71q16 35 42 57q20 17 43 27t48 16q26 6 52 9.5t51 -2.5q17 -4 33.5 -16t30 -28t22 -34t9.5 -35
q2 -28 -2 -55.5t-16 -52.5q-7 -14 -17 -26t-24 -20q-8 19 -12 39t-9 40q-2 10 -5.5 20t-11.5 17q3 7 3 15.5t-4 14.5q-3 5 -7 8.5t-8 8.5q-10 12 -20 24.5t-23 21.5q-10 7 -23 7.5t-24 -4.5q-17 -7 -31 -20.5t-24 -29.5q-10 -17 -15.5 -41.5t-5.5 -50t5 -49.5t16 -40
q12 -17 33.5 -20.5t39.5 7.5q15 10 27 24.5t23 29.5q3 -14 6.5 -27t9.5 -25q6 -11 15 -20.5t21 -14.5q16 -5 33.5 -0.5t31.5 13.5q23 16 40.5 38t26.5 48q22 67 16 134q-2 31 -18 60t-38 51q-16 16 -34.5 29t-39.5 21q-42 14 -87 9t-87 -18q-26 -8 -50.5 -20.5t-45.5 -29.5
q-35 -29 -56.5 -73t-25.5 -89q-4 -39 0.5 -79t18.5 -76q15 -40 46 -74.5t71 -48.5q26 -9 53.5 -10.5t53.5 3.5zM251 277q2 15 8.5 29.5t17.5 24.5q8 -8 14.5 -16t13.5 -16q-14 -18 -26 -37.5t-28 -36.5q-3 26 0 52z" />
    <glyph glyph-name="A" unicode="A" horiz-adv-x="383" 
d="M118 71q-4 36 -5.5 72t-2.5 73q38 17 78.5 27.5t81.5 21.5q0 -26 -0.5 -51t-5.5 -51q-3 -17 9.5 -29.5t29.5 -9.5q9 2 17 8.5t12 14.5q6 11 8 24.5t3 26.5q9 121 -9 240q-4 30 -9.5 59t-13.5 58q-8 25 -20.5 49t-33.5 39q-15 11 -33 12.5t-36 -3.5t-34.5 -15t-28.5 -23
q-17 -20 -28.5 -43t-19.5 -47q-24 -76 -30.5 -155.5t-3.5 -158.5q0 -9 1.5 -32.5t3.5 -50.5t4 -50.5t3 -31.5q1 -7 4 -13.5t9 -10.5q13 -9 26.5 -7t22 10.5t10.5 21.5t-9 25zM125 432q5 26 11.5 51.5t17.5 48.5q6 12 14.5 23.5t19.5 19.5q5 4 13.5 7t13.5 0q4 -2 8 -9t6 -11
q6 -14 10 -28t7 -28q17 -83 22 -172q-81 -20 -158 -48q2 37 5 73.5t10 72.5z" />
    <glyph glyph-name="A" unicode="&#xc5;" horiz-adv-x="383" 
d="M118 71q-4 36 -5.5 72t-2.5 73q38 17 78.5 27.5t81.5 21.5q0 -26 -0.5 -51t-5.5 -51q-3 -17 9.5 -29.5t29.5 -9.5q9 2 17 8.5t12 14.5q6 11 8 24.5t3 26.5q9 121 -9 240q-4 30 -9.5 59t-13.5 58q-8 25 -20.5 49t-33.5 39q-15 11 -33 12.5t-36 -3.5t-34.5 -15t-28.5 -23
q-17 -20 -28.5 -43t-19.5 -47q-24 -76 -30.5 -155.5t-3.5 -158.5q0 -9 1.5 -32.5t3.5 -50.5t4 -50.5t3 -31.5q1 -7 4 -13.5t9 -10.5q13 -9 26.5 -7t22 10.5t10.5 21.5t-9 25zM125 432q5 26 11.5 51.5t17.5 48.5q6 12 14.5 23.5t19.5 19.5q5 4 13.5 7t13.5 0q4 -2 8 -9t6 -11
q6 -14 10 -28t7 -28q17 -83 22 -172q-81 -20 -158 -48q2 37 5 73.5t10 72.5z" />
    <glyph glyph-name="A" unicode="&#xc4;" horiz-adv-x="383" 
d="M118 71q-4 36 -5.5 72t-2.5 73q38 17 78.5 27.5t81.5 21.5q0 -26 -0.5 -51t-5.5 -51q-3 -17 9.5 -29.5t29.5 -9.5q9 2 17 8.5t12 14.5q6 11 8 24.5t3 26.5q9 121 -9 240q-4 30 -9.5 59t-13.5 58q-8 25 -20.5 49t-33.5 39q-15 11 -33 12.5t-36 -3.5t-34.5 -15t-28.5 -23
q-17 -20 -28.5 -43t-19.5 -47q-24 -76 -30.5 -155.5t-3.5 -158.5q0 -9 1.5 -32.5t3.5 -50.5t4 -50.5t3 -31.5q1 -7 4 -13.5t9 -10.5q13 -9 26.5 -7t22 10.5t10.5 21.5t-9 25zM125 432q5 26 11.5 51.5t17.5 48.5q6 12 14.5 23.5t19.5 19.5q5 4 13.5 7t13.5 0q4 -2 8 -9t6 -11
q6 -14 10 -28t7 -28q17 -83 22 -172q-81 -20 -158 -48q2 37 5 73.5t10 72.5z" />
    <glyph glyph-name="A" unicode="&#xc3;" horiz-adv-x="383" 
d="M118 71q-4 36 -5.5 72t-2.5 73q38 17 78.5 27.5t81.5 21.5q0 -26 -0.5 -51t-5.5 -51q-3 -17 9.5 -29.5t29.5 -9.5q9 2 17 8.5t12 14.5q6 11 8 24.5t3 26.5q9 121 -9 240q-4 30 -9.5 59t-13.5 58q-8 25 -20.5 49t-33.5 39q-15 11 -33 12.5t-36 -3.5t-34.5 -15t-28.5 -23
q-17 -20 -28.5 -43t-19.5 -47q-24 -76 -30.5 -155.5t-3.5 -158.5q0 -9 1.5 -32.5t3.5 -50.5t4 -50.5t3 -31.5q1 -7 4 -13.5t9 -10.5q13 -9 26.5 -7t22 10.5t10.5 21.5t-9 25zM125 432q5 26 11.5 51.5t17.5 48.5q6 12 14.5 23.5t19.5 19.5q5 4 13.5 7t13.5 0q4 -2 8 -9t6 -11
q6 -14 10 -28t7 -28q17 -83 22 -172q-81 -20 -158 -48q2 37 5 73.5t10 72.5z" />
    <glyph glyph-name="A" unicode="&#xc2;" horiz-adv-x="383" 
d="M118 71q-4 36 -5.5 72t-2.5 73q38 17 78.5 27.5t81.5 21.5q0 -26 -0.5 -51t-5.5 -51q-3 -17 9.5 -29.5t29.5 -9.5q9 2 17 8.5t12 14.5q6 11 8 24.5t3 26.5q9 121 -9 240q-4 30 -9.5 59t-13.5 58q-8 25 -20.5 49t-33.5 39q-15 11 -33 12.5t-36 -3.5t-34.5 -15t-28.5 -23
q-17 -20 -28.5 -43t-19.5 -47q-24 -76 -30.5 -155.5t-3.5 -158.5q0 -9 1.5 -32.5t3.5 -50.5t4 -50.5t3 -31.5q1 -7 4 -13.5t9 -10.5q13 -9 26.5 -7t22 10.5t10.5 21.5t-9 25zM125 432q5 26 11.5 51.5t17.5 48.5q6 12 14.5 23.5t19.5 19.5q5 4 13.5 7t13.5 0q4 -2 8 -9t6 -11
q6 -14 10 -28t7 -28q17 -83 22 -172q-81 -20 -158 -48q2 37 5 73.5t10 72.5z" />
    <glyph glyph-name="A" unicode="&#xc1;" horiz-adv-x="383" 
d="M118 71q-4 36 -5.5 72t-2.5 73q38 17 78.5 27.5t81.5 21.5q0 -26 -0.5 -51t-5.5 -51q-3 -17 9.5 -29.5t29.5 -9.5q9 2 17 8.5t12 14.5q6 11 8 24.5t3 26.5q9 121 -9 240q-4 30 -9.5 59t-13.5 58q-8 25 -20.5 49t-33.5 39q-15 11 -33 12.5t-36 -3.5t-34.5 -15t-28.5 -23
q-17 -20 -28.5 -43t-19.5 -47q-24 -76 -30.5 -155.5t-3.5 -158.5q0 -9 1.5 -32.5t3.5 -50.5t4 -50.5t3 -31.5q1 -7 4 -13.5t9 -10.5q13 -9 26.5 -7t22 10.5t10.5 21.5t-9 25zM125 432q5 26 11.5 51.5t17.5 48.5q6 12 14.5 23.5t19.5 19.5q5 4 13.5 7t13.5 0q4 -2 8 -9t6 -11
q6 -14 10 -28t7 -28q17 -83 22 -172q-81 -20 -158 -48q2 37 5 73.5t10 72.5z" />
    <glyph glyph-name="A" unicode="&#xc0;" horiz-adv-x="383" 
d="M118 71q-4 36 -5.5 72t-2.5 73q38 17 78.5 27.5t81.5 21.5q0 -26 -0.5 -51t-5.5 -51q-3 -17 9.5 -29.5t29.5 -9.5q9 2 17 8.5t12 14.5q6 11 8 24.5t3 26.5q9 121 -9 240q-4 30 -9.5 59t-13.5 58q-8 25 -20.5 49t-33.5 39q-15 11 -33 12.5t-36 -3.5t-34.5 -15t-28.5 -23
q-17 -20 -28.5 -43t-19.5 -47q-24 -76 -30.5 -155.5t-3.5 -158.5q0 -9 1.5 -32.5t3.5 -50.5t4 -50.5t3 -31.5q1 -7 4 -13.5t9 -10.5q13 -9 26.5 -7t22 10.5t10.5 21.5t-9 25zM125 432q5 26 11.5 51.5t17.5 48.5q6 12 14.5 23.5t19.5 19.5q5 4 13.5 7t13.5 0q4 -2 8 -9t6 -11
q6 -14 10 -28t7 -28q17 -83 22 -172q-81 -20 -158 -48q2 37 5 73.5t10 72.5z" />
    <glyph glyph-name="B" unicode="B" horiz-adv-x="518" 
d="M128 97q11 0 21 2t20 5q45 11 88.5 29t84.5 40t78 51.5t63 67.5q9 12 14.5 26.5t5.5 29.5q1 19 -9 38q-8 13 -20 22.5t-25 15.5q-44 20 -94 18q20 27 34.5 57t22.5 62q3 15 3.5 30.5t-4.5 29.5q-8 21 -24 34q-12 11 -27 16.5t-30 7.5q-56 8 -112.5 -6.5t-107.5 -39.5
q-8 -4 -15.5 -7t-12.5 -9q-11 -13 -14.5 -30t-5.5 -34q-8 -65 -12 -129.5t-5 -130.5q0 -42 0.5 -84.5t5.5 -84.5q1 -10 4 -22.5t8 -24.5t12 -21t16 -11q12 -3 22 0.5t15.5 11.5t6 19t-6.5 21zM135 564q8 2 15 7l3 3q39 15 81 26t84 6q7 -1 13.5 -2t11.5 -4t4 -11.5t-2 -13.5
q-4 -20 -12.5 -38t-19.5 -35q-14 -23 -33 -43.5t-42 -37.5q-26 -8 -51 -16.5t-49 -20.5q-4 -2 -8 -5t-8 -5q2 48 4 95t9 95zM119 174q-1 33 -0.5 66.5t1.5 67.5q6 -4 13.5 -5t14.5 -1q8 1 22.5 7t30 13.5t30 15.5t20.5 12q2 1 7.5 2.5t7.5 1.5q37 11 76.5 16t74.5 -9
q3 -2 9.5 -5t8.5 -7q1 -2 0 -5t-2 -5q-17 -29 -43 -52t-55 -40q-42 -25 -87 -42.5t-92 -30.5q-5 -2 -11 -3l-12 -2q-2 -1 -7 1.5z" />
    <glyph glyph-name="C" unicode="C" horiz-adv-x="416" 
d="M256 130q28 20 53.5 43t45.5 50q2 4 8 13t13 19t12.5 19t6.5 13q6 14 0 25t-16.5 15.5t-23 2t-20.5 -15.5q-16 -25 -33 -48.5t-40 -42.5q-17 -16 -36 -29.5t-41 -21.5q-11 -4 -23.5 -5.5t-21.5 5.5q-12 9 -19 27.5t-10 40t-3 43.5t2 37q5 32 12 63.5t18 61.5q8 24 18 48
t24 45q11 16 26 29t32 21q5 2 11.5 3.5t10.5 -1.5q3 -3 8.5 -13t11.5 -22t11 -22.5t8 -13.5q7 -8 16.5 -10.5t18.5 0t15.5 9.5t8.5 17q2 9 -2.5 18.5t-9.5 18.5q-1 3 -6 12.5t-10.5 19.5t-10.5 19.5t-8 12.5q-13 18 -32 25t-39.5 5.5t-41 -10t-37.5 -22.5q-23 -18 -40.5 -41
t-29.5 -49q-52 -104 -61 -221q-3 -34 -1 -69t13 -67q7 -20 18 -38.5t28 -32.5q10 -8 21.5 -13.5t23.5 -7.5q31 -6 63 5.5t58 29.5z" />
    <glyph glyph-name="C" unicode="&#xc7;" horiz-adv-x="416" 
d="M256 130q28 20 53.5 43t45.5 50q2 4 8 13t13 19t12.5 19t6.5 13q6 14 0 25t-16.5 15.5t-23 2t-20.5 -15.5q-16 -25 -33 -48.5t-40 -42.5q-17 -16 -36 -29.5t-41 -21.5q-11 -4 -23.5 -5.5t-21.5 5.5q-12 9 -19 27.5t-10 40t-3 43.5t2 37q5 32 12 63.5t18 61.5q8 24 18 48
t24 45q11 16 26 29t32 21q5 2 11.5 3.5t10.5 -1.5q3 -3 8.5 -13t11.5 -22t11 -22.5t8 -13.5q7 -8 16.5 -10.5t18.5 0t15.5 9.5t8.5 17q2 9 -2.5 18.5t-9.5 18.5q-1 3 -6 12.5t-10.5 19.5t-10.5 19.5t-8 12.5q-13 18 -32 25t-39.5 5.5t-41 -10t-37.5 -22.5q-23 -18 -40.5 -41
t-29.5 -49q-52 -104 -61 -221q-3 -34 -1 -69t13 -67q7 -20 18 -38.5t28 -32.5q10 -8 21.5 -13.5t23.5 -7.5q31 -6 63 5.5t58 29.5z" />
    <glyph glyph-name="D" unicode="D" horiz-adv-x="448" 
d="M120 134q9 5 18 9.5t17 10.5q39 27 74.5 58.5t69.5 66.5q30 32 57 67t46 75q11 23 17.5 48t8.5 50q2 32 -5 65t-28 56q-20 25 -52 36q-23 8 -47 9.5t-48 -0.5q-40 -3 -79.5 -14t-73.5 -33q-19 -2 -29 -15q-10 -12 -11.5 -28.5t-3.5 -32.5q-4 -63 -5 -125.5t-1 -125.5
q-1 -31 -0.5 -62t2.5 -62q-4 -8 -5 -17.5t3 -17.5q10 -21 32.5 -24.5t42.5 6.5zM123 549q9 14 4 30q19 11 40.5 17t43.5 10q23 4 46 5.5t46 -1.5q11 -2 21 -5.5t17 -11.5q9 -8 12.5 -20.5t5.5 -24.5q5 -40 -10.5 -80t-39.5 -73q-35 -47 -77 -87.5t-88 -75.5
q-7 -5 -13.5 -9.5t-13.5 -9.5v37t0.5 59.5t1.5 71.5t2 71.5t1.5 59.5t0.5 37z" />
    <glyph glyph-name="E" unicode="E" horiz-adv-x="375" 
d="M230 30q29 20 52 47t45 55q9 11 8 23t-7.5 19.5t-15.5 10.5t-18.5 0.5t-16.5 -11.5l-28 -34t-31 -33q-9 -8 -20.5 -17t-24 -15t-25 -7.5t-22.5 5.5q-8 5 -12 13.5t-6 17.5q-4 14 -4.5 29t0.5 30q1 23 3.5 45.5t6.5 45.5q9 3 29.5 12.5t43 20.5t42.5 22t28 16
q17 11 16 30.5t-20 27.5q-11 6 -25 1q-3 -2 -16 -9t-17 -9q-17 -9 -34.5 -18t-34.5 -17l20 114t18 115q9 3 34.5 12.5t54 21t54 21.5t34.5 14t14 15q5 10 3 20t-8.5 16.5t-16 9.5t-20.5 -1q-41 -15 -80.5 -30.5t-79.5 -30.5q-20 8 -37 -6q-9 -8 -15.5 -21t-4.5 -25
q-1 -8 -4.5 -29l-8 -48t-9.5 -57.5t-9.5 -57.5t-7.5 -48t-4 -29q-8 -11 -6 -24q1 -4 0 -14.5t-2.5 -22.5t-3 -22.5t-1.5 -14.5q-2 -22 -3.5 -43.5t0.5 -43.5q2 -27 12 -54t30 -45q13 -11 30.5 -17.5t34.5 -6.5q23 0 45 8.5t41 22.5z" />
    <glyph glyph-name="E" unicode="&#xcb;" horiz-adv-x="375" 
d="M230 30q29 20 52 47t45 55q9 11 8 23t-7.5 19.5t-15.5 10.5t-18.5 0.5t-16.5 -11.5l-28 -34t-31 -33q-9 -8 -20.5 -17t-24 -15t-25 -7.5t-22.5 5.5q-8 5 -12 13.5t-6 17.5q-4 14 -4.5 29t0.5 30q1 23 3.5 45.5t6.5 45.5q9 3 29.5 12.5t43 20.5t42.5 22t28 16
q17 11 16 30.5t-20 27.5q-11 6 -25 1q-3 -2 -16 -9t-17 -9q-17 -9 -34.5 -18t-34.5 -17l20 114t18 115q9 3 34.5 12.5t54 21t54 21.5t34.5 14t14 15q5 10 3 20t-8.5 16.5t-16 9.5t-20.5 -1q-41 -15 -80.5 -30.5t-79.5 -30.5q-20 8 -37 -6q-9 -8 -15.5 -21t-4.5 -25
q-1 -8 -4.5 -29l-8 -48t-9.5 -57.5t-9.5 -57.5t-7.5 -48t-4 -29q-8 -11 -6 -24q1 -4 0 -14.5t-2.5 -22.5t-3 -22.5t-1.5 -14.5q-2 -22 -3.5 -43.5t0.5 -43.5q2 -27 12 -54t30 -45q13 -11 30.5 -17.5t34.5 -6.5q23 0 45 8.5t41 22.5z" />
    <glyph glyph-name="E" unicode="&#xca;" horiz-adv-x="375" 
d="M230 30q29 20 52 47t45 55q9 11 8 23t-7.5 19.5t-15.5 10.5t-18.5 0.5t-16.5 -11.5l-28 -34t-31 -33q-9 -8 -20.5 -17t-24 -15t-25 -7.5t-22.5 5.5q-8 5 -12 13.5t-6 17.5q-4 14 -4.5 29t0.5 30q1 23 3.5 45.5t6.5 45.5q9 3 29.5 12.5t43 20.5t42.5 22t28 16
q17 11 16 30.5t-20 27.5q-11 6 -25 1q-3 -2 -16 -9t-17 -9q-17 -9 -34.5 -18t-34.5 -17l20 114t18 115q9 3 34.5 12.5t54 21t54 21.5t34.5 14t14 15q5 10 3 20t-8.5 16.5t-16 9.5t-20.5 -1q-41 -15 -80.5 -30.5t-79.5 -30.5q-20 8 -37 -6q-9 -8 -15.5 -21t-4.5 -25
q-1 -8 -4.5 -29l-8 -48t-9.5 -57.5t-9.5 -57.5t-7.5 -48t-4 -29q-8 -11 -6 -24q1 -4 0 -14.5t-2.5 -22.5t-3 -22.5t-1.5 -14.5q-2 -22 -3.5 -43.5t0.5 -43.5q2 -27 12 -54t30 -45q13 -11 30.5 -17.5t34.5 -6.5q23 0 45 8.5t41 22.5z" />
    <glyph glyph-name="E" unicode="&#xc9;" horiz-adv-x="375" 
d="M230 30q29 20 52 47t45 55q9 11 8 23t-7.5 19.5t-15.5 10.5t-18.5 0.5t-16.5 -11.5l-28 -34t-31 -33q-9 -8 -20.5 -17t-24 -15t-25 -7.5t-22.5 5.5q-8 5 -12 13.5t-6 17.5q-4 14 -4.5 29t0.5 30q1 23 3.5 45.5t6.5 45.5q9 3 29.5 12.5t43 20.5t42.5 22t28 16
q17 11 16 30.5t-20 27.5q-11 6 -25 1q-3 -2 -16 -9t-17 -9q-17 -9 -34.5 -18t-34.5 -17l20 114t18 115q9 3 34.5 12.5t54 21t54 21.5t34.5 14t14 15q5 10 3 20t-8.5 16.5t-16 9.5t-20.5 -1q-41 -15 -80.5 -30.5t-79.5 -30.5q-20 8 -37 -6q-9 -8 -15.5 -21t-4.5 -25
q-1 -8 -4.5 -29l-8 -48t-9.5 -57.5t-9.5 -57.5t-7.5 -48t-4 -29q-8 -11 -6 -24q1 -4 0 -14.5t-2.5 -22.5t-3 -22.5t-1.5 -14.5q-2 -22 -3.5 -43.5t0.5 -43.5q2 -27 12 -54t30 -45q13 -11 30.5 -17.5t34.5 -6.5q23 0 45 8.5t41 22.5z" />
    <glyph glyph-name="E" unicode="&#xc8;" horiz-adv-x="375" 
d="M230 30q29 20 52 47t45 55q9 11 8 23t-7.5 19.5t-15.5 10.5t-18.5 0.5t-16.5 -11.5l-28 -34t-31 -33q-9 -8 -20.5 -17t-24 -15t-25 -7.5t-22.5 5.5q-8 5 -12 13.5t-6 17.5q-4 14 -4.5 29t0.5 30q1 23 3.5 45.5t6.5 45.5q9 3 29.5 12.5t43 20.5t42.5 22t28 16
q17 11 16 30.5t-20 27.5q-11 6 -25 1q-3 -2 -16 -9t-17 -9q-17 -9 -34.5 -18t-34.5 -17l20 114t18 115q9 3 34.5 12.5t54 21t54 21.5t34.5 14t14 15q5 10 3 20t-8.5 16.5t-16 9.5t-20.5 -1q-41 -15 -80.5 -30.5t-79.5 -30.5q-20 8 -37 -6q-9 -8 -15.5 -21t-4.5 -25
q-1 -8 -4.5 -29l-8 -48t-9.5 -57.5t-9.5 -57.5t-7.5 -48t-4 -29q-8 -11 -6 -24q1 -4 0 -14.5t-2.5 -22.5t-3 -22.5t-1.5 -14.5q-2 -22 -3.5 -43.5t0.5 -43.5q2 -27 12 -54t30 -45q13 -11 30.5 -17.5t34.5 -6.5q23 0 45 8.5t41 22.5z" />
    <glyph glyph-name="F" unicode="F" horiz-adv-x="331" 
d="M145 119q-2 11 -3.5 43t-2.5 68t-1.5 68t-0.5 44q6 3 26 13.5t42.5 22.5t42.5 22.5t27 13.5q5 2 10 4.5t8 7.5q8 10 8 21t-5.5 19.5t-16 12.5t-22.5 1q-7 -2 -24 -10t-36 -17.5t-36 -18.5t-24 -13v21.5v36t0.5 43t0.5 43t0.5 36t0.5 21.5q39 17 77.5 33.5t80.5 24.5
q19 4 26.5 21t-3.5 32q-7 10 -17 13q-12 3 -31 -0.5t-41.5 -10.5t-46.5 -17t-46.5 -20t-41 -18t-30.5 -12q-13 -5 -19 -15t-5.5 -20.5t7.5 -19.5t20 -11q-2 -56 -3 -110.5t-1 -109.5q-7 -5 -14 -9.5t-11 -12.5q-8 -12 -4 -25.5t16 -20.5q2 -1 6.5 -3t6.5 -2q1 -46 2.5 -91
t7.5 -90q2 -14 5 -28.5t12 -25.5q5 -6 11.5 -9t14.5 -5q13 -3 22.5 3t13.5 15.5t2.5 20.5t-11.5 20z" />
    <glyph glyph-name="G" unicode="G" horiz-adv-x="407" 
d="M209 60q23 21 36.5 48.5t24.5 56.5q2 -17 4 -34.5t9 -33.5q6 -14 17.5 -19t23 -2t19 13t4.5 25q-1 1 -1.5 4t-1.5 4q-2 8 -4 29t-4.5 45.5t-4 46t-2.5 29.5q0 4 -1.5 15.5t-3 25t-3.5 25t-3 15.5q3 1 10 4t15.5 7t15.5 7.5t10 4.5q12 7 15 18.5t-0.5 22t-13.5 17.5t-24 4
q-5 -1 -17 -5.5t-25.5 -9.5t-25.5 -10t-17 -7q-14 -5 -27.5 -10t-27.5 -8q-2 -1 -4 -0.5t-4 0.5q-10 -1 -20 -3.5t-16 -10.5q-11 -14 -6.5 -31.5t21.5 -22.5t34.5 -2t34.5 8q-2 -18 -5.5 -35.5t-8.5 -34.5q-3 -11 -10.5 -32.5t-17 -44t-20 -41.5t-19.5 -27q-14 5 -24 20.5
t-16.5 35t-10 39.5t-4.5 35q-4 41 -0.5 82t12.5 81q8 32 18.5 62.5t25.5 58.5q6 11 18 27t24 17q8 0 18.5 -4.5t16.5 -11.5q8 -9 13 -21t16 -18q10 -6 20.5 -4.5t18 7.5t10.5 16t-1 21q-1 3 -4.5 10t-8 14.5t-9 14t-7.5 9.5q-14 14 -30.5 24t-35.5 14q-17 5 -36 1t-35 -14
t-28.5 -24.5t-22.5 -31.5q-20 -35 -33.5 -74.5t-21.5 -80.5q-10 -48 -13 -97t3 -98q4 -34 14 -67.5t30 -61.5q12 -16 28 -28t33.5 -17.5t34.5 -2.5t31 16z" />
    <glyph glyph-name="H" unicode="H" horiz-adv-x="436" 
d="M376 120q3 9 2 19t-3 20q-4 18 -5 36t-1 36q-2 88 6.5 174.5t23.5 173.5q3 14 6.5 30t-4.5 30q-8 15 -25.5 16.5t-28.5 -12.5q-7 -8 -10 -19.5t-5 -22.5q-8 -34 -13.5 -67.5t-9.5 -67.5q-46 -3 -90 -11.5t-89 -19.5q1 8 3.5 31.5t5 49.5t5.5 49.5t4 30.5l2 2
q9 13 6.5 25.5t-11.5 20t-22 8.5t-25 -9q-11 -10 -16 -26t-7 -31q-7 -41 -11.5 -81.5t-8.5 -82.5q-10 -4 -16 -12t-7 -17.5t3.5 -18.5t14.5 -14q-4 -51 -5 -101.5t5 -101.5q2 -11 5.5 -21.5t11.5 -16.5q12 -9 24 -7.5t20.5 9t11 19t-5.5 24.5q-5 51 -2 100.5t8 100.5
q45 9 89 17.5t89 12.5q-1 -14 -2.5 -36.5t-2 -49.5t-0.5 -56.5t2 -56t6 -48t11 -33.5q6 -9 14.5 -13t17.5 -3.5t17 6t12 15.5z" />
    <glyph glyph-name="I" unicode="I" horiz-adv-x="179" 
d="M124 37q9 3 14.5 10.5t7 16t-1 16.5t-10.5 14q-3 2 -5.5 4t-4.5 5q-5 6 -7 21t-3 31.5t-0.5 31.5t0.5 23q0 12 1 39.5t2 63.5t2.5 76t2.5 76t2 64t2 39q0 3 0.5 5.5t0.5 5.5q1 11 -4 20t-13 13.5t-18 4.5t-19 -8q-12 -10 -15 -27q-2 -10 -3.5 -32.5t-3 -51t-2.5 -60.5
t-1.5 -60.5t-1 -51t-0.5 -33.5q-1 -40 -1 -80t3 -81q2 -16 5.5 -32t11.5 -30q9 -15 26 -27t33 -6z" />
    <glyph glyph-name="I" unicode="&#xcf;" horiz-adv-x="179" 
d="M124 37q9 3 14.5 10.5t7 16t-1 16.5t-10.5 14q-3 2 -5.5 4t-4.5 5q-5 6 -7 21t-3 31.5t-0.5 31.5t0.5 23q0 12 1 39.5t2 63.5t2.5 76t2.5 76t2 64t2 39q0 3 0.5 5.5t0.5 5.5q1 11 -4 20t-13 13.5t-18 4.5t-19 -8q-12 -10 -15 -27q-2 -10 -3.5 -32.5t-3 -51t-2.5 -60.5
t-1.5 -60.5t-1 -51t-0.5 -33.5q-1 -40 -1 -80t3 -81q2 -16 5.5 -32t11.5 -30q9 -15 26 -27t33 -6z" />
    <glyph glyph-name="I" unicode="&#xce;" horiz-adv-x="179" 
d="M124 37q9 3 14.5 10.5t7 16t-1 16.5t-10.5 14q-3 2 -5.5 4t-4.5 5q-5 6 -7 21t-3 31.5t-0.5 31.5t0.5 23q0 12 1 39.5t2 63.5t2.5 76t2.5 76t2 64t2 39q0 3 0.5 5.5t0.5 5.5q1 11 -4 20t-13 13.5t-18 4.5t-19 -8q-12 -10 -15 -27q-2 -10 -3.5 -32.5t-3 -51t-2.5 -60.5
t-1.5 -60.5t-1 -51t-0.5 -33.5q-1 -40 -1 -80t3 -81q2 -16 5.5 -32t11.5 -30q9 -15 26 -27t33 -6z" />
    <glyph glyph-name="I" unicode="&#xcd;" horiz-adv-x="179" 
d="M124 37q9 3 14.5 10.5t7 16t-1 16.5t-10.5 14q-3 2 -5.5 4t-4.5 5q-5 6 -7 21t-3 31.5t-0.5 31.5t0.5 23q0 12 1 39.5t2 63.5t2.5 76t2.5 76t2 64t2 39q0 3 0.5 5.5t0.5 5.5q1 11 -4 20t-13 13.5t-18 4.5t-19 -8q-12 -10 -15 -27q-2 -10 -3.5 -32.5t-3 -51t-2.5 -60.5
t-1.5 -60.5t-1 -51t-0.5 -33.5q-1 -40 -1 -80t3 -81q2 -16 5.5 -32t11.5 -30q9 -15 26 -27t33 -6z" />
    <glyph glyph-name="I" unicode="&#xcc;" horiz-adv-x="179" 
d="M124 37q9 3 14.5 10.5t7 16t-1 16.5t-10.5 14q-3 2 -5.5 4t-4.5 5q-5 6 -7 21t-3 31.5t-0.5 31.5t0.5 23q0 12 1 39.5t2 63.5t2.5 76t2.5 76t2 64t2 39q0 3 0.5 5.5t0.5 5.5q1 11 -4 20t-13 13.5t-18 4.5t-19 -8q-12 -10 -15 -27q-2 -10 -3.5 -32.5t-3 -51t-2.5 -60.5
t-1.5 -60.5t-1 -51t-0.5 -33.5q-1 -40 -1 -80t3 -81q2 -16 5.5 -32t11.5 -30q9 -15 26 -27t33 -6z" />
    <glyph glyph-name="J" unicode="J" horiz-adv-x="489" 
d="M340 63q14 19 20.5 41.5t9.5 45.5q8 66 4 131t-9 130q-4 41 -9 80.5t-10 80.5q9 11 9 25q19 0 38 -0.5t38 -1.5q11 0 21.5 1.5t18.5 8.5t11 16.5t1.5 19t-7.5 17.5t-17 12q-8 3 -26.5 4t-39 1t-39 -0.5t-26.5 -1.5q-73 -3 -139 -25l-17.5 -7t-16.5 -8q-9 -7 -12 -17
t-0.5 -19.5t9 -17t17.5 -10.5q17 -5 30 7q5 3 15 6t22 5t23 3t17 2q-2 -14 -2 -29.5t1 -30.5q2 -60 8 -120t11 -120q3 -38 4 -76.5t-4 -76.5q-1 -12 -6 -24q-7 -15 -23 -15q-19 0 -37 7t-34 18q-29 18 -54.5 40.5t-51.5 46.5q-5 5 -10 9.5t-7 10.5q-4 11 -13.5 16.5
t-19.5 5.5t-18.5 -6t-11.5 -17q-5 -20 7 -38q11 -17 23.5 -30.5t26.5 -27.5q22 -20 44.5 -39t47.5 -36q21 -14 46.5 -23t51 -10t48 7t37.5 29z" />
    <glyph glyph-name="K" unicode="K" horiz-adv-x="405" 
d="M144 107q0 3 -1 12t-2 12q-5 38 -9 76t-6 76q2 -2 4 -2.5t4 -2.5q17 -8 36.5 -11t39.5 -5q27 -3 54 -4t53 -5q3 0 9.5 -1.5t13.5 -2.5t13 -2t9 0q12 3 18.5 12t7.5 19t-4 19.5t-17 13.5q-3 1 -14 3t-14 3q-23 5 -46.5 7t-46.5 4q-17 2 -34 3t-34 5q4 5 17.5 19t28.5 29.5
t28.5 29l17.5 17.5q18 19 35 38t38 34q11 8 12.5 19.5t-3 21.5t-14.5 15.5t-23 2.5q-12 -3 -21.5 -11.5t-17.5 -18.5q-32 -35 -66 -67t-66 -66q-12 -12 -23 -26q0 7 -0.5 28t-1 45.5t-1 45.5t-0.5 28t-0.5 24t-1 35.5t-1.5 35t-3 23.5q-8 19 -27.5 22.5t-33.5 -12.5
q-7 -8 -7.5 -19t-0.5 -22q0 -80 1 -158.5t8 -157.5q4 -47 10.5 -93t14.5 -92l2 -8t4 -8q7 -10 17.5 -13.5t20 -1t16.5 11t7 20.5z" />
    <glyph glyph-name="L" unicode="L" horiz-adv-x="379" 
d="M121 74q17 5 33.5 12.5t33.5 16.5q25 13 49 26t49 24q16 8 32 12.5t33 9.5q10 3 17 12q6 9 5.5 19t-5.5 17.5t-13.5 12.5t-19.5 3q-35 -5 -67 -19t-62 -30q-23 -13 -46 -25.5t-48 -21.5q-1 15 0 49.5t3.5 78t6.5 92t7.5 92t6 78t3.5 49.5q1 5 2 19.5t-1 19.5
q-3 14 -13 20.5t-21 6t-20.5 -7t-13.5 -20.5q-3 -12 -6.5 -38t-6.5 -59t-5.5 -69.5t-4.5 -69.5t-3 -59.5t-2 -38.5q-2 -38 -3 -75.5t2 -75.5q2 -12 5 -23.5t11 -21.5q9 -10 22 -15q10 -4 20 -3.5t20 2.5z" />
    <glyph glyph-name="M" unicode="M" horiz-adv-x="587" 
d="M130 139q-1 1 -5 3.5t-5 3.5q-4 5 -5.5 19.5t-1.5 21.5q-3 50 -1.5 99.5t6.5 99.5q4 38 8 75t11 74q19 -58 37.5 -116t41.5 -115q5 -14 12.5 -27.5t19.5 -21.5q18 -11 37 -4t28 25q8 18 14 36.5t12 37.5q13 38 27.5 74.5t34.5 70.5q11 19 24.5 36.5t30.5 31.5
q5 -13 5.5 -26t1.5 -27q1 -12 1.5 -47.5t1 -76.5t1 -76.5t0.5 -47.5q0 -10 0.5 -29.5t2 -40t4.5 -38.5t10 -26q14 -16 33.5 -13.5t28.5 21.5q4 8 4 17t-5 16q-1 2 -2 3t-1 3q-3 85 -1 170t-6 170q-2 26 -7 52.5t-20 47.5q-21 27 -56 21q-20 -4 -36.5 -16.5t-30.5 -27.5
q-42 -46 -67.5 -104.5t-46.5 -118.5q-2 6 -7.5 22t-12.5 36.5t-14.5 43t-14.5 43t-12.5 36.5t-7.5 22q-6 16 -13 31t-17 29q-12 17 -31.5 20.5t-35.5 -9.5q-8 -8 -13.5 -17.5t-9.5 -20.5q-14 -42 -21.5 -86t-12.5 -89q-7 -57 -9.5 -114t1.5 -114q2 -19 4.5 -38.5t10.5 -37.5
l6 -12t8 -11q8 -8 18 -15.5t22 -7.5t20 6.5t11 15.5t1 19.5t-11 17.5z" />
    <glyph glyph-name="N" unicode="N" horiz-adv-x="463" 
d="M129 27q3 8 6.5 15t3.5 15q0 12 -8 22q0 9 -1 31t-2 51t-2 61.5t-2 61.5t-2 51t-1 31q-1 32 -1 62.5t2 62.5q14 -29 25.5 -59t22.5 -60t22.5 -60.5t24.5 -59.5q7 -14 14.5 -28t17.5 -26q18 -22 46 -24q14 -1 26.5 5t21.5 16q20 19 33.5 43t23.5 50q17 42 24 85.5t10 88.5
q2 34 2 68t-5 69q-2 9 -5.5 18.5t-11.5 15.5q-13 11 -26.5 8.5t-22 -12t-10 -23t10.5 -25.5q2 -23 2.5 -47t-0.5 -48q-2 -54 -11 -108t-36 -101l-10 -16t-12 -15q-5 7 -9 14.5t-6 15.5q-6 18 -12.5 35.5t-12.5 35.5q-15 48 -32.5 95t-41.5 91q-11 18 -23 35t-30 27
q-18 11 -37.5 3.5t-28.5 -25.5q-5 -9 -7 -18l-4 -18q-6 -37 -7 -74.5t-1 -75.5q0 -45 1 -90t3 -91q2 -42 4 -83.5t7 -83.5q2 -14 11 -23t19.5 -11t21 3.5t15.5 18.5z" />
    <glyph glyph-name="N" unicode="&#xd1;" horiz-adv-x="463" 
d="M129 27q3 8 6.5 15t3.5 15q0 12 -8 22q0 9 -1 31t-2 51t-2 61.5t-2 61.5t-2 51t-1 31q-1 32 -1 62.5t2 62.5q14 -29 25.5 -59t22.5 -60t22.5 -60.5t24.5 -59.5q7 -14 14.5 -28t17.5 -26q18 -22 46 -24q14 -1 26.5 5t21.5 16q20 19 33.5 43t23.5 50q17 42 24 85.5t10 88.5
q2 34 2 68t-5 69q-2 9 -5.5 18.5t-11.5 15.5q-13 11 -26.5 8.5t-22 -12t-10 -23t10.5 -25.5q2 -23 2.5 -47t-0.5 -48q-2 -54 -11 -108t-36 -101l-10 -16t-12 -15q-5 7 -9 14.5t-6 15.5q-6 18 -12.5 35.5t-12.5 35.5q-15 48 -32.5 95t-41.5 91q-11 18 -23 35t-30 27
q-18 11 -37.5 3.5t-28.5 -25.5q-5 -9 -7 -18l-4 -18q-6 -37 -7 -74.5t-1 -75.5q0 -45 1 -90t3 -91q2 -42 4 -83.5t7 -83.5q2 -14 11 -23t19.5 -11t21 3.5t15.5 18.5z" />
    <glyph glyph-name="O" unicode="O" horiz-adv-x="435" 
d="M337 173q23 40 39 84t24 89q6 34 7.5 69t-6.5 69q-5 19 -12.5 37t-20.5 32q-18 23 -49 34q-16 6 -32.5 8.5t-33.5 4.5q-5 6 -11 11q-2 1 -7.5 3t-11.5 4t-11 4t-8 2q-9 1 -18 0.5t-17 -4.5q-18 -8 -31 -21q-12 -14 -20.5 -29.5t-16.5 -32.5q-15 -33 -26.5 -68t-20.5 -70
q-11 -42 -18 -85t-4 -86q2 -31 9.5 -61t21.5 -57q16 -33 45 -53q7 -5 14.5 -8t15.5 -5q27 -7 56.5 3t56.5 30t49.5 46t36.5 50zM152 116q-10 5 -16 14t-10 19q-14 32 -19 68.5t0 71.5q5 38 14.5 76t22.5 76q8 25 17 49t22 47q3 -1 10.5 -2t15.5 -1t16 -0.5t11 -0.5
q12 0 24.5 -1t24.5 -4q8 -2 17 -6.5t15 -11.5q9 -11 14 -25t7 -29q5 -38 -0.5 -76t-16.5 -75q-11 -38 -29 -73.5t-44 -64.5q-14 -16 -30.5 -29t-36.5 -20q-7 -2 -15 -4t-14 2z" />
    <glyph glyph-name="O" unicode="&#xd8;" horiz-adv-x="435" 
d="M337 173q23 40 39 84t24 89q6 34 7.5 69t-6.5 69q-5 19 -12.5 37t-20.5 32q-18 23 -49 34q-16 6 -32.5 8.5t-33.5 4.5q-5 6 -11 11q-2 1 -7.5 3t-11.5 4t-11 4t-8 2q-9 1 -18 0.5t-17 -4.5q-18 -8 -31 -21q-12 -14 -20.5 -29.5t-16.5 -32.5q-15 -33 -26.5 -68t-20.5 -70
q-11 -42 -18 -85t-4 -86q2 -31 9.5 -61t21.5 -57q16 -33 45 -53q7 -5 14.5 -8t15.5 -5q27 -7 56.5 3t56.5 30t49.5 46t36.5 50zM152 116q-10 5 -16 14t-10 19q-14 32 -19 68.5t0 71.5q5 38 14.5 76t22.5 76q8 25 17 49t22 47q3 -1 10.5 -2t15.5 -1t16 -0.5t11 -0.5
q12 0 24.5 -1t24.5 -4q8 -2 17 -6.5t15 -11.5q9 -11 14 -25t7 -29q5 -38 -0.5 -76t-16.5 -75q-11 -38 -29 -73.5t-44 -64.5q-14 -16 -30.5 -29t-36.5 -20q-7 -2 -15 -4t-14 2z" />
    <glyph glyph-name="O" unicode="&#xd6;" horiz-adv-x="435" 
d="M337 173q23 40 39 84t24 89q6 34 7.5 69t-6.5 69q-5 19 -12.5 37t-20.5 32q-18 23 -49 34q-16 6 -32.5 8.5t-33.5 4.5q-5 6 -11 11q-2 1 -7.5 3t-11.5 4t-11 4t-8 2q-9 1 -18 0.5t-17 -4.5q-18 -8 -31 -21q-12 -14 -20.5 -29.5t-16.5 -32.5q-15 -33 -26.5 -68t-20.5 -70
q-11 -42 -18 -85t-4 -86q2 -31 9.5 -61t21.5 -57q16 -33 45 -53q7 -5 14.5 -8t15.5 -5q27 -7 56.5 3t56.5 30t49.5 46t36.5 50zM152 116q-10 5 -16 14t-10 19q-14 32 -19 68.5t0 71.5q5 38 14.5 76t22.5 76q8 25 17 49t22 47q3 -1 10.5 -2t15.5 -1t16 -0.5t11 -0.5
q12 0 24.5 -1t24.5 -4q8 -2 17 -6.5t15 -11.5q9 -11 14 -25t7 -29q5 -38 -0.5 -76t-16.5 -75q-11 -38 -29 -73.5t-44 -64.5q-14 -16 -30.5 -29t-36.5 -20q-7 -2 -15 -4t-14 2z" />
    <glyph glyph-name="O" unicode="&#xd5;" horiz-adv-x="435" 
d="M337 173q23 40 39 84t24 89q6 34 7.5 69t-6.5 69q-5 19 -12.5 37t-20.5 32q-18 23 -49 34q-16 6 -32.5 8.5t-33.5 4.5q-5 6 -11 11q-2 1 -7.5 3t-11.5 4t-11 4t-8 2q-9 1 -18 0.5t-17 -4.5q-18 -8 -31 -21q-12 -14 -20.5 -29.5t-16.5 -32.5q-15 -33 -26.5 -68t-20.5 -70
q-11 -42 -18 -85t-4 -86q2 -31 9.5 -61t21.5 -57q16 -33 45 -53q7 -5 14.5 -8t15.5 -5q27 -7 56.5 3t56.5 30t49.5 46t36.5 50zM152 116q-10 5 -16 14t-10 19q-14 32 -19 68.5t0 71.5q5 38 14.5 76t22.5 76q8 25 17 49t22 47q3 -1 10.5 -2t15.5 -1t16 -0.5t11 -0.5
q12 0 24.5 -1t24.5 -4q8 -2 17 -6.5t15 -11.5q9 -11 14 -25t7 -29q5 -38 -0.5 -76t-16.5 -75q-11 -38 -29 -73.5t-44 -64.5q-14 -16 -30.5 -29t-36.5 -20q-7 -2 -15 -4t-14 2z" />
    <glyph glyph-name="O" unicode="&#xd4;" horiz-adv-x="435" 
d="M337 173q23 40 39 84t24 89q6 34 7.5 69t-6.5 69q-5 19 -12.5 37t-20.5 32q-18 23 -49 34q-16 6 -32.5 8.5t-33.5 4.5q-5 6 -11 11q-2 1 -7.5 3t-11.5 4t-11 4t-8 2q-9 1 -18 0.5t-17 -4.5q-18 -8 -31 -21q-12 -14 -20.5 -29.5t-16.5 -32.5q-15 -33 -26.5 -68t-20.5 -70
q-11 -42 -18 -85t-4 -86q2 -31 9.5 -61t21.5 -57q16 -33 45 -53q7 -5 14.5 -8t15.5 -5q27 -7 56.5 3t56.5 30t49.5 46t36.5 50zM152 116q-10 5 -16 14t-10 19q-14 32 -19 68.5t0 71.5q5 38 14.5 76t22.5 76q8 25 17 49t22 47q3 -1 10.5 -2t15.5 -1t16 -0.5t11 -0.5
q12 0 24.5 -1t24.5 -4q8 -2 17 -6.5t15 -11.5q9 -11 14 -25t7 -29q5 -38 -0.5 -76t-16.5 -75q-11 -38 -29 -73.5t-44 -64.5q-14 -16 -30.5 -29t-36.5 -20q-7 -2 -15 -4t-14 2z" />
    <glyph glyph-name="O" unicode="&#xd3;" horiz-adv-x="435" 
d="M337 173q23 40 39 84t24 89q6 34 7.5 69t-6.5 69q-5 19 -12.5 37t-20.5 32q-18 23 -49 34q-16 6 -32.5 8.5t-33.5 4.5q-5 6 -11 11q-2 1 -7.5 3t-11.5 4t-11 4t-8 2q-9 1 -18 0.5t-17 -4.5q-18 -8 -31 -21q-12 -14 -20.5 -29.5t-16.5 -32.5q-15 -33 -26.5 -68t-20.5 -70
q-11 -42 -18 -85t-4 -86q2 -31 9.5 -61t21.5 -57q16 -33 45 -53q7 -5 14.5 -8t15.5 -5q27 -7 56.5 3t56.5 30t49.5 46t36.5 50zM152 116q-10 5 -16 14t-10 19q-14 32 -19 68.5t0 71.5q5 38 14.5 76t22.5 76q8 25 17 49t22 47q3 -1 10.5 -2t15.5 -1t16 -0.5t11 -0.5
q12 0 24.5 -1t24.5 -4q8 -2 17 -6.5t15 -11.5q9 -11 14 -25t7 -29q5 -38 -0.5 -76t-16.5 -75q-11 -38 -29 -73.5t-44 -64.5q-14 -16 -30.5 -29t-36.5 -20q-7 -2 -15 -4t-14 2z" />
    <glyph glyph-name="O" unicode="&#xd2;" horiz-adv-x="435" 
d="M337 173q23 40 39 84t24 89q6 34 7.5 69t-6.5 69q-5 19 -12.5 37t-20.5 32q-18 23 -49 34q-16 6 -32.5 8.5t-33.5 4.5q-5 6 -11 11q-2 1 -7.5 3t-11.5 4t-11 4t-8 2q-9 1 -18 0.5t-17 -4.5q-18 -8 -31 -21q-12 -14 -20.5 -29.5t-16.5 -32.5q-15 -33 -26.5 -68t-20.5 -70
q-11 -42 -18 -85t-4 -86q2 -31 9.5 -61t21.5 -57q16 -33 45 -53q7 -5 14.5 -8t15.5 -5q27 -7 56.5 3t56.5 30t49.5 46t36.5 50zM152 116q-10 5 -16 14t-10 19q-14 32 -19 68.5t0 71.5q5 38 14.5 76t22.5 76q8 25 17 49t22 47q3 -1 10.5 -2t15.5 -1t16 -0.5t11 -0.5
q12 0 24.5 -1t24.5 -4q8 -2 17 -6.5t15 -11.5q9 -11 14 -25t7 -29q5 -38 -0.5 -76t-16.5 -75q-11 -38 -29 -73.5t-44 -64.5q-14 -16 -30.5 -29t-36.5 -20q-7 -2 -15 -4t-14 2z" />
    <glyph glyph-name="P" unicode="P" horiz-adv-x="400" 
d="M149 82q6 9 6 20q0 3 -2.5 13t-4.5 20.5t-4.5 20.5t-2.5 13q-4 20 -6.5 39.5t-4.5 39.5q38 18 75.5 38.5t71.5 47.5q21 17 39.5 36.5t33.5 42.5q11 17 20 36t13 39q8 42 -11 80.5t-57 58.5q-27 14 -58 19t-61 0q-17 -2 -32.5 -6.5t-31.5 -9.5q-11 -4 -22 -8.5t-20 -11.5
q-14 -11 -20 -26q0 -1 -3 -4q-6 -7 -7.5 -15.5t-3.5 -17.5q-5 -26 -6 -52.5t-1 -52.5q-1 -39 0 -78t4 -77q-10 -5 -15.5 -14t-5.5 -18.5t5.5 -18t16.5 -12.5q5 0 5 -2q5 -34 12 -67t19 -65q8 -19 27.5 -21.5t31.5 13.5zM123 532q17 12 15 30q28 11 58.5 16t59.5 -2
q15 -4 28.5 -11.5t22.5 -19.5q11 -16 10 -35t-9.5 -38t-22.5 -36.5t-28 -30.5q-29 -27 -63 -47.5t-69 -37.5q-2 54 -4 106.5t2 105.5z" />
    <glyph glyph-name="Q" unicode="Q" horiz-adv-x="440" 
d="M394 23q-2 13 -9 20q-5 5 -10.5 10t-10.5 11q-14 18 -25 38.5t-21 41.5q15 20 25 40q23 43 38.5 90t21.5 96q5 32 4 64.5t-10 63.5q-5 15 -11.5 29.5t-17.5 25.5q-18 23 -49 34q-16 6 -32.5 8.5t-33.5 4.5q-5 6 -11 11q-2 1 -7.5 3t-11.5 4t-11 4t-8 2q-9 1 -18 0.5
t-17 -4.5q-18 -8 -31 -21q-12 -14 -20.5 -29.5t-16.5 -32.5q-15 -33 -26.5 -68t-20.5 -70q-11 -42 -18 -85t-4 -86q2 -31 9.5 -61t21.5 -57q16 -33 45 -53q17 -12 40 -14t43 4q20 5 39 16t36 25q8 -17 18 -34.5t23 -32.5q3 -3 8.5 -8t11.5 -10.5t12 -9.5t10 -5
q18 -5 32.5 5.5t12.5 29.5zM152 116q-10 5 -16 14t-10 19q-14 32 -19 68.5t0 71.5q5 38 14.5 76t22.5 76q8 25 17 49t22 47q3 -1 10.5 -2t15.5 -1t16 -0.5t11 -0.5q12 0 24.5 -1t24.5 -4q8 -2 17 -6.5t15 -11.5q9 -11 14 -25t7 -29q2 -12 2.5 -25t-0.5 -26q-8 -100 -55 -187
q-1 2 -5 13t-5 13t-1 7q-4 15 -15 21t-23 5t-21 -9.5t-9 -23.5q0 -6 4 -18.5t9.5 -26.5t10.5 -26t7 -18q-11 -11 -24 -20.5t-27 -14.5q-8 -4 -17 -6t-17 2z" />
    <glyph glyph-name="R" unicode="R" horiz-adv-x="398" 
d="M139 149q-1 7 -4.5 28.5t-6.5 45.5t-5.5 46t-3.5 29q5 -5 10 -7.5t10 -4.5q13 -4 26.5 -5.5t27.5 -2.5q34 -2 67.5 -2t65.5 -8l18 -4t17 1q10 3 15.5 11.5t6.5 17.5t-3.5 18t-13.5 13q-5 2 -11 3.5t-12 3.5q-35 10 -72 11t-73 3q28 27 53.5 56.5t46.5 62.5q11 17 19 36
t10 39q2 16 -3 32t-15 27q-10 12 -24 19.5t-29 10.5q-36 9 -74.5 2t-72.5 -23q-9 5 -20.5 4t-19.5 -8q-10 -11 -15 -28q-10 -10 -14 -20q-4 -9 -3 -20t6 -20q-7 -59 -5 -117.5t9 -117.5q1 -10 4.5 -33.5t8 -50t9.5 -49.5t9 -32q5 -10 14.5 -18t20.5 -8t19.5 6t12.5 15t3 19
t-9 19zM114 506q0 2 2 4q3 8 1 18q0 2 -0.5 6t1.5 5q43 23 90 26q9 0 26.5 -1.5t23.5 -7.5q4 -4 3 -12.5t-3 -13.5q-10 -25 -24 -43q-16 -23 -34 -44.5t-38 -41.5q-12 -12 -24.5 -23t-22.5 -25q-3 38 -3.5 76.5t2.5 76.5z" />
    <glyph glyph-name="S" unicode="S" horiz-adv-x="399" 
d="M241 117q20 4 39.5 10t38.5 14q15 8 28.5 18t21.5 24q10 15 11 35t-7 37q-11 25 -28.5 45.5t-38.5 37.5q-39 32 -82.5 57.5t-81.5 59.5q-8 7 -14.5 16.5t-5.5 20.5q1 8 6 15.5t11 13.5q14 15 33 26t40 14q20 3 39 -5q3 -1 10.5 -5t16 -7.5t16 -6.5t11.5 -3q12 0 20 6.5
t11 15.5t1 19.5t-11 17.5q-4 3 -13.5 8t-21 9.5t-21.5 9t-15 5.5q-34 9 -70.5 1.5t-65.5 -27.5q-20 -14 -38.5 -33.5t-26.5 -43.5q-15 -41 7 -85q12 -23 32 -40.5t42 -31.5q27 -17 54.5 -33.5t54.5 -33.5q17 -11 33 -24.5t28 -30.5q4 -5 8 -14t-1 -14q-3 -5 -12 -10
t-19.5 -9t-21 -7t-16.5 -4q-39 -8 -79.5 -8t-78.5 13q-9 15 -22 17t-24.5 -4.5t-16.5 -19.5t2 -29q8 -17 24 -25q20 -11 43 -15t46 -6q26 -2 52 0.5t52 8.5z" />
    <glyph glyph-name="T" unicode="T" horiz-adv-x="446" 
d="M260 148q-2 8 -5 14t-5 14q-5 17 -6 33.5t-1 33.5q-1 54 1 106t4 106l4 66t5 66q51 12 103 15q12 1 24 0.5t25 -0.5q15 0 24 8.5t11 19.5t-3 23t-19 18q-7 3 -25 4.5t-25 1.5q-88 -5 -172 -31t-162 -64q-8 -3 -15.5 -8t-11.5 -12q-6 -10 -5 -20.5t6.5 -18t15 -12
t20.5 -2.5q13 3 21 14q28 13 56.5 23t57.5 20q-7 -57 -9 -113t-4 -113q-1 -38 0 -75.5t7 -75.5q1 -9 4 -22t8.5 -25.5t12.5 -22.5t16 -13q10 -4 19 -1.5t15.5 9t9 15.5t-1.5 19z" />
    <glyph glyph-name="U" unicode="U" horiz-adv-x="461" 
d="M427 122q-5 8 -9 15.5t-6 15.5q-6 26 -8 53t-3 53q-2 42 -2 82t3 81q1 7 2.5 25.5t3.5 39t3 39t0 25.5t-2.5 14.5t-6.5 12.5q-11 13 -28 12.5t-28 -14.5q-10 -11 -14.5 -25t-9.5 -28q-26 -70 -55 -138.5t-67 -133.5q-3 -5 -9 -14.5t-13.5 -20t-14.5 -19t-12 -11.5
q-5 4 -11.5 16.5t-8.5 17.5q-17 41 -20.5 85t-1.5 89q1 11 3 34.5t5 49.5t7.5 49t8.5 32q5 11 3.5 21.5t-7.5 18t-16 11t-22 0.5q-15 -3 -22 -17q-11 -23 -16 -47t-9 -49q-8 -52 -11 -104.5t5 -104.5q5 -31 14.5 -61t24.5 -58q7 -13 17 -24.5t23 -19.5q12 -8 27 -9t29 4
q14 6 26 16t21 22q34 45 59 94.5t47 100.5q-1 -45 1 -90.5t8 -90.5q2 -13 6 -29.5t11 -31.5t17 -26t23 -13q11 -2 19.5 2t14 11.5t6 17.5t-4.5 19z" />
    <glyph glyph-name="U" unicode="&#xdc;" horiz-adv-x="461" 
d="M427 122q-5 8 -9 15.5t-6 15.5q-6 26 -8 53t-3 53q-2 42 -2 82t3 81q1 7 2.5 25.5t3.5 39t3 39t0 25.5t-2.5 14.5t-6.5 12.5q-11 13 -28 12.5t-28 -14.5q-10 -11 -14.5 -25t-9.5 -28q-26 -70 -55 -138.5t-67 -133.5q-3 -5 -9 -14.5t-13.5 -20t-14.5 -19t-12 -11.5
q-5 4 -11.5 16.5t-8.5 17.5q-17 41 -20.5 85t-1.5 89q1 11 3 34.5t5 49.5t7.5 49t8.5 32q5 11 3.5 21.5t-7.5 18t-16 11t-22 0.5q-15 -3 -22 -17q-11 -23 -16 -47t-9 -49q-8 -52 -11 -104.5t5 -104.5q5 -31 14.5 -61t24.5 -58q7 -13 17 -24.5t23 -19.5q12 -8 27 -9t29 4
q14 6 26 16t21 22q34 45 59 94.5t47 100.5q-1 -45 1 -90.5t8 -90.5q2 -13 6 -29.5t11 -31.5t17 -26t23 -13q11 -2 19.5 2t14 11.5t6 17.5t-4.5 19z" />
    <glyph glyph-name="U" unicode="&#xdb;" horiz-adv-x="461" 
d="M427 122q-5 8 -9 15.5t-6 15.5q-6 26 -8 53t-3 53q-2 42 -2 82t3 81q1 7 2.5 25.5t3.5 39t3 39t0 25.5t-2.5 14.5t-6.5 12.5q-11 13 -28 12.5t-28 -14.5q-10 -11 -14.5 -25t-9.5 -28q-26 -70 -55 -138.5t-67 -133.5q-3 -5 -9 -14.5t-13.5 -20t-14.5 -19t-12 -11.5
q-5 4 -11.5 16.5t-8.5 17.5q-17 41 -20.5 85t-1.5 89q1 11 3 34.5t5 49.5t7.5 49t8.5 32q5 11 3.5 21.5t-7.5 18t-16 11t-22 0.5q-15 -3 -22 -17q-11 -23 -16 -47t-9 -49q-8 -52 -11 -104.5t5 -104.5q5 -31 14.5 -61t24.5 -58q7 -13 17 -24.5t23 -19.5q12 -8 27 -9t29 4
q14 6 26 16t21 22q34 45 59 94.5t47 100.5q-1 -45 1 -90.5t8 -90.5q2 -13 6 -29.5t11 -31.5t17 -26t23 -13q11 -2 19.5 2t14 11.5t6 17.5t-4.5 19z" />
    <glyph glyph-name="U" unicode="&#xda;" horiz-adv-x="461" 
d="M427 122q-5 8 -9 15.5t-6 15.5q-6 26 -8 53t-3 53q-2 42 -2 82t3 81q1 7 2.5 25.5t3.5 39t3 39t0 25.5t-2.5 14.5t-6.5 12.5q-11 13 -28 12.5t-28 -14.5q-10 -11 -14.5 -25t-9.5 -28q-26 -70 -55 -138.5t-67 -133.5q-3 -5 -9 -14.5t-13.5 -20t-14.5 -19t-12 -11.5
q-5 4 -11.5 16.5t-8.5 17.5q-17 41 -20.5 85t-1.5 89q1 11 3 34.5t5 49.5t7.5 49t8.5 32q5 11 3.5 21.5t-7.5 18t-16 11t-22 0.5q-15 -3 -22 -17q-11 -23 -16 -47t-9 -49q-8 -52 -11 -104.5t5 -104.5q5 -31 14.5 -61t24.5 -58q7 -13 17 -24.5t23 -19.5q12 -8 27 -9t29 4
q14 6 26 16t21 22q34 45 59 94.5t47 100.5q-1 -45 1 -90.5t8 -90.5q2 -13 6 -29.5t11 -31.5t17 -26t23 -13q11 -2 19.5 2t14 11.5t6 17.5t-4.5 19z" />
    <glyph glyph-name="U" unicode="&#xd9;" horiz-adv-x="461" 
d="M427 122q-5 8 -9 15.5t-6 15.5q-6 26 -8 53t-3 53q-2 42 -2 82t3 81q1 7 2.5 25.5t3.5 39t3 39t0 25.5t-2.5 14.5t-6.5 12.5q-11 13 -28 12.5t-28 -14.5q-10 -11 -14.5 -25t-9.5 -28q-26 -70 -55 -138.5t-67 -133.5q-3 -5 -9 -14.5t-13.5 -20t-14.5 -19t-12 -11.5
q-5 4 -11.5 16.5t-8.5 17.5q-17 41 -20.5 85t-1.5 89q1 11 3 34.5t5 49.5t7.5 49t8.5 32q5 11 3.5 21.5t-7.5 18t-16 11t-22 0.5q-15 -3 -22 -17q-11 -23 -16 -47t-9 -49q-8 -52 -11 -104.5t5 -104.5q5 -31 14.5 -61t24.5 -58q7 -13 17 -24.5t23 -19.5q12 -8 27 -9t29 4
q14 6 26 16t21 22q34 45 59 94.5t47 100.5q-1 -45 1 -90.5t8 -90.5q2 -13 6 -29.5t11 -31.5t17 -26t23 -13q11 -2 19.5 2t14 11.5t6 17.5t-4.5 19z" />
    <glyph glyph-name="V" unicode="V" horiz-adv-x="367" 
d="M205 67q10 8 17.5 18.5t13.5 21.5q14 26 24.5 54.5t19.5 57.5q16 53 29 105.5t22 106.5q1 6 3.5 22.5t4.5 34.5t3.5 34t0.5 22q0 13 -4 22q-7 11 -18 14.5t-21 0t-17 -12.5t-6 -22q0 -7 -1.5 -23.5t-4 -35t-5 -35t-3.5 -23.5q-9 -54 -23 -106t-31 -104q-8 -22 -16 -43.5
t-20 -41.5q-11 23 -16.5 47.5t-10.5 49.5q-12 57 -21.5 113t-17.5 113q-1 6 -2.5 18.5t-3 26.5t-2.5 26.5t0 17.5q2 10 -4 21.5t-16 16.5q-12 6 -25.5 2.5t-18.5 -16.5q-4 -9 -5 -29.5t0 -43.5t3 -43.5t3 -31.5q5 -48 13 -94.5t19 -92.5q8 -36 19 -72t28 -68q9 -19 28 -32
q6 -4 13 -5.5t15 -2.5q9 -1 17.5 3t16.5 9z" />
    <glyph glyph-name="W" unicode="W" horiz-adv-x="537" 
d="M160 64q13 5 23 14t19 20q13 17 23.5 35.5t20.5 37.5q23 45 39 93q8 -23 18.5 -44.5t25.5 -40.5q6 -8 14.5 -14t17.5 -11q18 -8 34.5 -4t31 16t26.5 29t21 35q10 20 17.5 42t12.5 45q14 69 6 142q-1 11 -2 21.5t-6 20.5q-8 14 -20.5 17t-23 -1.5t-16.5 -15.5t-1 -26
q3 -8 4 -25.5t0.5 -36.5t-1.5 -36t-2 -26q-3 -17 -7.5 -33.5t-10.5 -32.5q-7 -17 -16 -34.5t-23 -29.5q-11 11 -17.5 26t-11.5 29q-14 36 -19 74t-9 76q-1 7 -2 14.5t-4 14.5q-7 13 -21 16t-28 -3q-10 -6 -15 -19q-1 -3 -2.5 -10.5t-2.5 -16.5t-2 -17t-1 -11
q-8 -42 -20.5 -83.5t-31.5 -79.5q-12 -25 -25.5 -49t-30.5 -45q-2 4 -3.5 8t-3.5 9q-11 34 -15 69t-6 70q-4 49 -5 97.5t-4 97.5q0 1 1 2t1 2q5 8 4 19.5t-8 17.5q-8 8 -18 10.5t-19.5 0t-17 -9t-10.5 -17.5q-4 -17 -4.5 -55t1.5 -80.5t5.5 -81t5.5 -55.5q4 -30 9.5 -60
t16.5 -59q6 -16 16 -31t24 -23q11 -7 24 -8t24 4z" />
    <glyph glyph-name="X" unicode="X" horiz-adv-x="386" 
d="M96 130q9 9 9 19q0 4 1 6q20 39 41 77t43 76q22 -28 43.5 -56t41.5 -57q8 -11 15.5 -23.5t21.5 -16.5q10 -3 18.5 0t14.5 10t8 16t-1 18q-1 3 -5 11t-9 16.5t-9 16t-6 10.5q-22 33 -45 64t-47 63q23 38 45.5 74.5t48.5 71.5q5 6 9.5 11.5t11.5 8.5q14 7 19.5 21.5
t-3.5 27.5q-11 16 -30 15t-33 -15q-16 -16 -29 -33.5t-26 -35.5q-16 -22 -30.5 -43.5t-28.5 -44.5q-22 28 -45 55t-46 55q-3 15 -13.5 23t-22.5 9t-22.5 -5.5t-13.5 -21.5q-2 -8 0 -16t6 -15q2 -4 9.5 -13.5t15.5 -20.5t15.5 -21t10.5 -13q16 -21 32 -42.5t33 -42.5
q-6 -10 -21.5 -37t-32.5 -57.5t-31.5 -57.5t-18.5 -38q-4 -8 -5 -18t2 -18q7 -18 26 -22.5t33 9.5z" />
    <glyph glyph-name="Y" unicode="Y" horiz-adv-x="371" 
d="M245 107q0 2 -1 9t-2 14.5t-2 14t-1 9.5q-1 7 -3.5 29t-5.5 46.5t-6 46.5t-4 29q17 11 28.5 28t19.5 34q23 49 40.5 99.5t33.5 101.5q1 3 3.5 11t5 17t5 17t2.5 11q2 17 -6.5 26.5t-20.5 11t-23.5 -5t-16.5 -22.5q-13 -45 -26.5 -89t-30.5 -88q-3 -8 -9 -22.5
t-13.5 -29.5t-15.5 -27.5t-16 -16.5q-3 -2 -8 1t-8 5q-21 16 -32 41t-19 50q-11 36 -15.5 72.5t-8.5 74.5q-1 14 -14 23.5t-27 5.5q-10 -2 -18.5 -11t-9.5 -19q-3 -38 2 -76.5t15 -74.5q8 -33 22.5 -64.5t37.5 -56.5q11 -11 24 -21t28 -16q3 -36 6.5 -72t11.5 -72
q1 -3 2.5 -11t4 -17t4 -17t2.5 -11q5 -13 16 -18t22 -3t19 10.5t8 22.5z" />
    <glyph glyph-name="Y" unicode="&#x178;" horiz-adv-x="371" 
d="M245 107q0 2 -1 9t-2 14.5t-2 14t-1 9.5q-1 7 -3.5 29t-5.5 46.5t-6 46.5t-4 29q17 11 28.5 28t19.5 34q23 49 40.5 99.5t33.5 101.5q1 3 3.5 11t5 17t5 17t2.5 11q2 17 -6.5 26.5t-20.5 11t-23.5 -5t-16.5 -22.5q-13 -45 -26.5 -89t-30.5 -88q-3 -8 -9 -22.5
t-13.5 -29.5t-15.5 -27.5t-16 -16.5q-3 -2 -8 1t-8 5q-21 16 -32 41t-19 50q-11 36 -15.5 72.5t-8.5 74.5q-1 14 -14 23.5t-27 5.5q-10 -2 -18.5 -11t-9.5 -19q-3 -38 2 -76.5t15 -74.5q8 -33 22.5 -64.5t37.5 -56.5q11 -11 24 -21t28 -16q3 -36 6.5 -72t11.5 -72
q1 -3 2.5 -11t4 -17t4 -17t2.5 -11q5 -13 16 -18t22 -3t19 10.5t8 22.5z" />
    <glyph glyph-name="Y" unicode="&#xdd;" horiz-adv-x="371" 
d="M245 107q0 2 -1 9t-2 14.5t-2 14t-1 9.5q-1 7 -3.5 29t-5.5 46.5t-6 46.5t-4 29q17 11 28.5 28t19.5 34q23 49 40.5 99.5t33.5 101.5q1 3 3.5 11t5 17t5 17t2.5 11q2 17 -6.5 26.5t-20.5 11t-23.5 -5t-16.5 -22.5q-13 -45 -26.5 -89t-30.5 -88q-3 -8 -9 -22.5
t-13.5 -29.5t-15.5 -27.5t-16 -16.5q-3 -2 -8 1t-8 5q-21 16 -32 41t-19 50q-11 36 -15.5 72.5t-8.5 74.5q-1 14 -14 23.5t-27 5.5q-10 -2 -18.5 -11t-9.5 -19q-3 -38 2 -76.5t15 -74.5q8 -33 22.5 -64.5t37.5 -56.5q11 -11 24 -21t28 -16q3 -36 6.5 -72t11.5 -72
q1 -3 2.5 -11t4 -17t4 -17t2.5 -11q5 -13 16 -18t22 -3t19 10.5t8 22.5z" />
    <glyph glyph-name="Z" unicode="Z" horiz-adv-x="514" 
d="M241 154q57 13 115 24.5t115 24.5q7 2 13.5 4t11.5 7q9 9 10 20t-3.5 20t-14 14.5t-22.5 3.5q-18 -4 -36.5 -6.5t-37.5 -5.5q-53 -9 -105 -19.5t-105 -21.5q45 54 84.5 111t74.5 117q13 23 24.5 45.5t19.5 46.5q7 20 11 41t-1 41q-8 36 -33 54t-58.5 22t-72 -2.5
t-72.5 -20.5q-30 -12 -59.5 -25t-58.5 -26q-5 -2 -10.5 -5t-9.5 -8q-7 -8 -8.5 -17.5t1.5 -18t10 -14.5t17 -7q5 0 10.5 1t10.5 4q2 1 3 2t3 2q29 12 58.5 24.5t60.5 23.5q26 9 54 15t54 1q8 -2 15 -4.5t12 -8.5q3 -5 3.5 -13t-1 -17t-4.5 -17.5t-5 -14.5q-14 -35 -32 -66.5
t-38 -62.5q-19 -29 -38.5 -57t-39.5 -56q-17 -21 -33.5 -41t-35.5 -39q-19 -17 -25 -41.5t14 -41.5q8 -7 18.5 -10t21.5 -3q29 1 57 7.5t57 13.5z" />
    <glyph glyph-name="underscore" unicode="_" horiz-adv-x="90" 
d="M-2 -75q3 1 14 3.5t23 5.5t22.5 5.5t13.5 3.5q5 1 9.5 4.5t7.5 7.5q7 10 6.5 20t-5.5 18.5t-14.5 13t-21.5 2.5q-8 -2 -28 -6t-46.5 -8.5t-55 -10t-55 -10t-46.5 -8t-28 -4.5q-35 -5 -69 -7t-69 3q-14 2 -24 -4.5t-14 -16.5t-0.5 -21.5t15.5 -18.5q6 -3 12.5 -4t14.5 -2
q85 -8 169.5 3.5t168.5 30.5z" />
    <glyph glyph-name="a" unicode="a" horiz-adv-x="332" 
d="M225 203q2 -9 6.5 -22t10.5 -25.5t14 -22.5t17 -13q10 -4 19.5 -1t16.5 9.5t9.5 16t-2.5 19.5l-9.5 19t-7.5 19q-3 9 -7 29t-9 42t-10.5 41.5t-11.5 26.5l-4 4l-4 4q-3 5 -7 8.5t-9 6.5q-2 2 -6.5 7.5t-6.5 7.5q-14 15 -29 21q-18 6 -37 1q-18 -4 -34.5 -15.5
t-27.5 -26.5q-28 -37 -46 -80.5t-28 -89.5q-5 -23 -4.5 -48t8.5 -48q5 -13 12.5 -25t18.5 -20q19 -12 40 -14q25 0 45.5 17.5t36 43.5t27.5 55t19 53zM89 143q0 26 8 53q9 29 20.5 56.5t28.5 53.5q5 7 10 13t12 11q5 5 7 3t8 -8.5t8 -8.5q-8 -22 -15 -45.5t-14 -46.5
t-16 -45t-21 -43q-5 -8 -10.5 -16t-13.5 -13q-6 8 -8.5 17t-3.5 19z" />
    <glyph glyph-name="a" unicode="&#xe5;" horiz-adv-x="332" 
d="M225 203q2 -9 6.5 -22t10.5 -25.5t14 -22.5t17 -13q10 -4 19.5 -1t16.5 9.5t9.5 16t-2.5 19.5l-9.5 19t-7.5 19q-3 9 -7 29t-9 42t-10.5 41.5t-11.5 26.5l-4 4l-4 4q-3 5 -7 8.5t-9 6.5q-2 2 -6.5 7.5t-6.5 7.5q-14 15 -29 21q-18 6 -37 1q-18 -4 -34.5 -15.5
t-27.5 -26.5q-28 -37 -46 -80.5t-28 -89.5q-5 -23 -4.5 -48t8.5 -48q5 -13 12.5 -25t18.5 -20q19 -12 40 -14q25 0 45.5 17.5t36 43.5t27.5 55t19 53zM89 143q0 26 8 53q9 29 20.5 56.5t28.5 53.5q5 7 10 13t12 11q5 5 7 3t8 -8.5t8 -8.5q-8 -22 -15 -45.5t-14 -46.5
t-16 -45t-21 -43q-5 -8 -10.5 -16t-13.5 -13q-6 8 -8.5 17t-3.5 19z" />
    <glyph glyph-name="a" unicode="&#xe4;" horiz-adv-x="332" 
d="M225 203q2 -9 6.5 -22t10.5 -25.5t14 -22.5t17 -13q10 -4 19.5 -1t16.5 9.5t9.5 16t-2.5 19.5l-9.5 19t-7.5 19q-3 9 -7 29t-9 42t-10.5 41.5t-11.5 26.5l-4 4l-4 4q-3 5 -7 8.5t-9 6.5q-2 2 -6.5 7.5t-6.5 7.5q-14 15 -29 21q-18 6 -37 1q-18 -4 -34.5 -15.5
t-27.5 -26.5q-28 -37 -46 -80.5t-28 -89.5q-5 -23 -4.5 -48t8.5 -48q5 -13 12.5 -25t18.5 -20q19 -12 40 -14q25 0 45.5 17.5t36 43.5t27.5 55t19 53zM89 143q0 26 8 53q9 29 20.5 56.5t28.5 53.5q5 7 10 13t12 11q5 5 7 3t8 -8.5t8 -8.5q-8 -22 -15 -45.5t-14 -46.5
t-16 -45t-21 -43q-5 -8 -10.5 -16t-13.5 -13q-6 8 -8.5 17t-3.5 19z" />
    <glyph glyph-name="a" unicode="&#xe3;" horiz-adv-x="332" 
d="M225 203q2 -9 6.5 -22t10.5 -25.5t14 -22.5t17 -13q10 -4 19.5 -1t16.5 9.5t9.5 16t-2.5 19.5l-9.5 19t-7.5 19q-3 9 -7 29t-9 42t-10.5 41.5t-11.5 26.5l-4 4l-4 4q-3 5 -7 8.5t-9 6.5q-2 2 -6.5 7.5t-6.5 7.5q-14 15 -29 21q-18 6 -37 1q-18 -4 -34.5 -15.5
t-27.5 -26.5q-28 -37 -46 -80.5t-28 -89.5q-5 -23 -4.5 -48t8.5 -48q5 -13 12.5 -25t18.5 -20q19 -12 40 -14q25 0 45.5 17.5t36 43.5t27.5 55t19 53zM89 143q0 26 8 53q9 29 20.5 56.5t28.5 53.5q5 7 10 13t12 11q5 5 7 3t8 -8.5t8 -8.5q-8 -22 -15 -45.5t-14 -46.5
t-16 -45t-21 -43q-5 -8 -10.5 -16t-13.5 -13q-6 8 -8.5 17t-3.5 19z" />
    <glyph glyph-name="a" unicode="&#xe2;" horiz-adv-x="332" 
d="M225 203q2 -9 6.5 -22t10.5 -25.5t14 -22.5t17 -13q10 -4 19.5 -1t16.5 9.5t9.5 16t-2.5 19.5l-9.5 19t-7.5 19q-3 9 -7 29t-9 42t-10.5 41.5t-11.5 26.5l-4 4l-4 4q-3 5 -7 8.5t-9 6.5q-2 2 -6.5 7.5t-6.5 7.5q-14 15 -29 21q-18 6 -37 1q-18 -4 -34.5 -15.5
t-27.5 -26.5q-28 -37 -46 -80.5t-28 -89.5q-5 -23 -4.5 -48t8.5 -48q5 -13 12.5 -25t18.5 -20q19 -12 40 -14q25 0 45.5 17.5t36 43.5t27.5 55t19 53zM89 143q0 26 8 53q9 29 20.5 56.5t28.5 53.5q5 7 10 13t12 11q5 5 7 3t8 -8.5t8 -8.5q-8 -22 -15 -45.5t-14 -46.5
t-16 -45t-21 -43q-5 -8 -10.5 -16t-13.5 -13q-6 8 -8.5 17t-3.5 19z" />
    <glyph glyph-name="a" unicode="&#xe1;" horiz-adv-x="332" 
d="M225 203q2 -9 6.5 -22t10.5 -25.5t14 -22.5t17 -13q10 -4 19.5 -1t16.5 9.5t9.5 16t-2.5 19.5l-9.5 19t-7.5 19q-3 9 -7 29t-9 42t-10.5 41.5t-11.5 26.5l-4 4l-4 4q-3 5 -7 8.5t-9 6.5q-2 2 -6.5 7.5t-6.5 7.5q-14 15 -29 21q-18 6 -37 1q-18 -4 -34.5 -15.5
t-27.5 -26.5q-28 -37 -46 -80.5t-28 -89.5q-5 -23 -4.5 -48t8.5 -48q5 -13 12.5 -25t18.5 -20q19 -12 40 -14q25 0 45.5 17.5t36 43.5t27.5 55t19 53zM89 143q0 26 8 53q9 29 20.5 56.5t28.5 53.5q5 7 10 13t12 11q5 5 7 3t8 -8.5t8 -8.5q-8 -22 -15 -45.5t-14 -46.5
t-16 -45t-21 -43q-5 -8 -10.5 -16t-13.5 -13q-6 8 -8.5 17t-3.5 19z" />
    <glyph glyph-name="a" unicode="&#xe0;" horiz-adv-x="332" 
d="M225 203q2 -9 6.5 -22t10.5 -25.5t14 -22.5t17 -13q10 -4 19.5 -1t16.5 9.5t9.5 16t-2.5 19.5l-9.5 19t-7.5 19q-3 9 -7 29t-9 42t-10.5 41.5t-11.5 26.5l-4 4l-4 4q-3 5 -7 8.5t-9 6.5q-2 2 -6.5 7.5t-6.5 7.5q-14 15 -29 21q-18 6 -37 1q-18 -4 -34.5 -15.5
t-27.5 -26.5q-28 -37 -46 -80.5t-28 -89.5q-5 -23 -4.5 -48t8.5 -48q5 -13 12.5 -25t18.5 -20q19 -12 40 -14q25 0 45.5 17.5t36 43.5t27.5 55t19 53zM89 143q0 26 8 53q9 29 20.5 56.5t28.5 53.5q5 7 10 13t12 11q5 5 7 3t8 -8.5t8 -8.5q-8 -22 -15 -45.5t-14 -46.5
t-16 -45t-21 -43q-5 -8 -10.5 -16t-13.5 -13q-6 8 -8.5 17t-3.5 19z" />
    <glyph glyph-name="b" unicode="b" horiz-adv-x="372" 
d="M111 130q12 7 18 20q13 -12 29 -13q22 -2 44 0.5t43 8.5q17 5 32.5 13t29.5 19q26 23 37 57q10 35 9 72.5t-9 72.5q-3 15 -9 30t-17 27q-27 33 -71 27q-26 -3 -48 -19.5t-38 -37.5q-20 -27 -34 -59t-25 -64q-3 54 -2 107t3 107v9.5t2 8.5q5 5 8.5 12.5t2.5 15.5
q-1 13 -8.5 20.5t-18 9t-22 -2t-19.5 -13.5q-4 -6 -7.5 -18.5t-5.5 -27t-3 -28t-1 -20.5q-4 -54 -4 -106.5t5 -105.5q3 -26 7.5 -52t15.5 -49q8 -16 24 -22.5t32 1.5zM151 217q11 39 24.5 78.5t39.5 71.5q7 8 20.5 19.5t24.5 10.5q5 0 9 -7.5t6 -12.5q5 -13 8 -33t2.5 -40.5
t-5 -39t-13.5 -29.5q-7 -8 -16.5 -12.5t-20.5 -7.5q-14 -4 -28 -6.5t-29 -2.5q-9 9 -22 11z" />
    <glyph glyph-name="c" unicode="c" horiz-adv-x="288" 
d="M179 98q29 20 52.5 47t40.5 59q8 15 3 27t-15.5 18t-23 3.5t-21.5 -16.5t-18.5 -28.5t-22.5 -26.5q-9 -9 -20 -17.5t-24 -11.5q-14 -5 -22.5 7.5t-11.5 26.5q-7 24 -4.5 50t8.5 50q6 23 14.5 46t20.5 44l5 -15l5 -15q2 -5 3 -11t4 -11q8 -11 19.5 -14t21.5 1t16 13.5
t4 23.5q-3 21 -10.5 42.5t-21.5 38.5q-14 18 -36.5 21.5t-41.5 -8.5q-15 -10 -26 -24.5t-19 -31.5q-15 -32 -25.5 -66.5t-13.5 -69.5q-2 -20 -1 -40t6 -40t14.5 -38t24.5 -31q24 -21 56 -21q31 0 60 18z" />
    <glyph glyph-name="c" unicode="&#xe7;" horiz-adv-x="288" 
d="M179 98q29 20 52.5 47t40.5 59q8 15 3 27t-15.5 18t-23 3.5t-21.5 -16.5t-18.5 -28.5t-22.5 -26.5q-9 -9 -20 -17.5t-24 -11.5q-14 -5 -22.5 7.5t-11.5 26.5q-7 24 -4.5 50t8.5 50q6 23 14.5 46t20.5 44l5 -15l5 -15q2 -5 3 -11t4 -11q8 -11 19.5 -14t21.5 1t16 13.5
t4 23.5q-3 21 -10.5 42.5t-21.5 38.5q-14 18 -36.5 21.5t-41.5 -8.5q-15 -10 -26 -24.5t-19 -31.5q-15 -32 -25.5 -66.5t-13.5 -69.5q-2 -20 -1 -40t6 -40t14.5 -38t24.5 -31q24 -21 56 -21q31 0 60 18z" />
    <glyph glyph-name="d" unicode="d" horiz-adv-x="378" 
d="M345 136q-3 3 -5 11.5t-3.5 17.5t-2.5 18t-1 13q-7 58 -6 116t6 116q0 5 1.5 17.5t3 27.5t3 28t2.5 17q2 12 3.5 24.5t-4.5 22.5q-5 9 -13.5 13.5t-17.5 4.5t-17 -5t-12 -14q-6 -13 -7.5 -26.5t-5.5 -27.5q-6 -23 -12.5 -46.5t-13.5 -46.5q-10 8 -20.5 15.5t-22.5 9.5
q-17 3 -34.5 -5.5t-31.5 -19.5q-25 -22 -46.5 -48t-36.5 -55q-13 -26 -21.5 -54t-10.5 -57q-2 -18 0.5 -37t11.5 -35q13 -23 37.5 -32t50.5 0q16 6 30 16.5t25 23.5q25 27 43 58.5t34 63.5q2 -27 5 -54.5t9 -54.5q3 -17 10.5 -35t21.5 -29q12 -9 25 -7.5t21.5 10t10 21
t-8.5 24.5zM96 209q11 56 45 101q12 17 24.5 33t28.5 30q6 -6 12 -11.5t13 -10.5q-9 -23 -19.5 -46t-23.5 -45q-10 -17 -20 -33t-23 -30q-8 -8 -15.5 -14.5t-16.5 -11.5q-4 -2 -4 0q-1 2 -1.5 7.5t-0.5 11.5t0.5 11t0.5 8z" />
    <glyph glyph-name="e" unicode="e" horiz-adv-x="346" 
d="M295 95q4 2 15.5 7.5t14.5 8.5q15 15 9.5 34.5t-25.5 23.5q-7 1 -13.5 -1t-12.5 -5q-26 -13 -56 -10.5t-58 8.5q-7 2 -19.5 5t-24.5 8t-22 11t-14 13q-3 5 -3.5 11t0.5 12h1q15 -3 35.5 3.5t41.5 18t39.5 25t29.5 24.5q13 12 23.5 26t17.5 31q8 17 8 39t-10 39
q-8 15 -23 25t-31 14q-12 3 -25 2t-25 -5q-19 -5 -34.5 -17.5t-27.5 -26.5q-19 -23 -34 -48t-27 -52q-11 -24 -19 -49.5t-10 -52.5q-2 -26 9 -48.5t31 -36.5q35 -25 78.5 -35t86.5 -13q38 -3 74 11zM147 359q8 11 17 21.5t21 15.5q8 5 17.5 4.5t11.5 -8.5t-4 -19.5
t-11 -17.5q-14 -17 -31.5 -31t-37.5 -25q-5 -3 -11 -6t-12 -5q8 19 18 36.5t22 34.5z" />
    <glyph glyph-name="e" unicode="&#xeb;" horiz-adv-x="346" 
d="M295 95q4 2 15.5 7.5t14.5 8.5q15 15 9.5 34.5t-25.5 23.5q-7 1 -13.5 -1t-12.5 -5q-26 -13 -56 -10.5t-58 8.5q-7 2 -19.5 5t-24.5 8t-22 11t-14 13q-3 5 -3.5 11t0.5 12h1q15 -3 35.5 3.5t41.5 18t39.5 25t29.5 24.5q13 12 23.5 26t17.5 31q8 17 8 39t-10 39
q-8 15 -23 25t-31 14q-12 3 -25 2t-25 -5q-19 -5 -34.5 -17.5t-27.5 -26.5q-19 -23 -34 -48t-27 -52q-11 -24 -19 -49.5t-10 -52.5q-2 -26 9 -48.5t31 -36.5q35 -25 78.5 -35t86.5 -13q38 -3 74 11zM147 359q8 11 17 21.5t21 15.5q8 5 17.5 4.5t11.5 -8.5t-4 -19.5
t-11 -17.5q-14 -17 -31.5 -31t-37.5 -25q-5 -3 -11 -6t-12 -5q8 19 18 36.5t22 34.5z" />
    <glyph glyph-name="e" unicode="&#xea;" horiz-adv-x="346" 
d="M295 95q4 2 15.5 7.5t14.5 8.5q15 15 9.5 34.5t-25.5 23.5q-7 1 -13.5 -1t-12.5 -5q-26 -13 -56 -10.5t-58 8.5q-7 2 -19.5 5t-24.5 8t-22 11t-14 13q-3 5 -3.5 11t0.5 12h1q15 -3 35.5 3.5t41.5 18t39.5 25t29.5 24.5q13 12 23.5 26t17.5 31q8 17 8 39t-10 39
q-8 15 -23 25t-31 14q-12 3 -25 2t-25 -5q-19 -5 -34.5 -17.5t-27.5 -26.5q-19 -23 -34 -48t-27 -52q-11 -24 -19 -49.5t-10 -52.5q-2 -26 9 -48.5t31 -36.5q35 -25 78.5 -35t86.5 -13q38 -3 74 11zM147 359q8 11 17 21.5t21 15.5q8 5 17.5 4.5t11.5 -8.5t-4 -19.5
t-11 -17.5q-14 -17 -31.5 -31t-37.5 -25q-5 -3 -11 -6t-12 -5q8 19 18 36.5t22 34.5z" />
    <glyph glyph-name="e" unicode="&#xe9;" horiz-adv-x="346" 
d="M295 95q4 2 15.5 7.5t14.5 8.5q15 15 9.5 34.5t-25.5 23.5q-7 1 -13.5 -1t-12.5 -5q-26 -13 -56 -10.5t-58 8.5q-7 2 -19.5 5t-24.5 8t-22 11t-14 13q-3 5 -3.5 11t0.5 12h1q15 -3 35.5 3.5t41.5 18t39.5 25t29.5 24.5q13 12 23.5 26t17.5 31q8 17 8 39t-10 39
q-8 15 -23 25t-31 14q-12 3 -25 2t-25 -5q-19 -5 -34.5 -17.5t-27.5 -26.5q-19 -23 -34 -48t-27 -52q-11 -24 -19 -49.5t-10 -52.5q-2 -26 9 -48.5t31 -36.5q35 -25 78.5 -35t86.5 -13q38 -3 74 11zM147 359q8 11 17 21.5t21 15.5q8 5 17.5 4.5t11.5 -8.5t-4 -19.5
t-11 -17.5q-14 -17 -31.5 -31t-37.5 -25q-5 -3 -11 -6t-12 -5q8 19 18 36.5t22 34.5z" />
    <glyph glyph-name="e" unicode="&#xe8;" horiz-adv-x="346" 
d="M295 95q4 2 15.5 7.5t14.5 8.5q15 15 9.5 34.5t-25.5 23.5q-7 1 -13.5 -1t-12.5 -5q-26 -13 -56 -10.5t-58 8.5q-7 2 -19.5 5t-24.5 8t-22 11t-14 13q-3 5 -3.5 11t0.5 12h1q15 -3 35.5 3.5t41.5 18t39.5 25t29.5 24.5q13 12 23.5 26t17.5 31q8 17 8 39t-10 39
q-8 15 -23 25t-31 14q-12 3 -25 2t-25 -5q-19 -5 -34.5 -17.5t-27.5 -26.5q-19 -23 -34 -48t-27 -52q-11 -24 -19 -49.5t-10 -52.5q-2 -26 9 -48.5t31 -36.5q35 -25 78.5 -35t86.5 -13q38 -3 74 11zM147 359q8 11 17 21.5t21 15.5q8 5 17.5 4.5t11.5 -8.5t-4 -19.5
t-11 -17.5q-14 -17 -31.5 -31t-37.5 -25q-5 -3 -11 -6t-12 -5q8 19 18 36.5t22 34.5z" />
    <glyph glyph-name="f" unicode="f" horiz-adv-x="270" 
d="M176 101q-3 2 -5 11.5t-3 13.5q-22 89 -26 178q4 1 14.5 4.5t22.5 8t22.5 8.5t13.5 5q13 6 18.5 17t3.5 22t-10.5 19t-23.5 8q-4 0 -12.5 -2.5t-18.5 -5.5t-18.5 -6t-12.5 -4q1 25 2.5 49.5t4.5 49.5q3 29 8 56.5t13 54.5q5 -11 10.5 -21.5t13.5 -18.5q11 -10 23 -10.5
t21.5 6.5t13 18.5t-4.5 24.5q0 1 -2.5 4t-2.5 4q-7 16 -14 31t-18 29q-15 19 -39 19.5t-43 -15.5q-13 -11 -20.5 -26.5t-12.5 -31.5q-8 -31 -13 -62t-8 -63q-2 -29 -3.5 -58t-1.5 -58q-8 4 -17 4t-16 -5q-11 -7 -15.5 -18.5t-2.5 -23t10 -20t21 -10.5q6 -1 12 -0.5t11 0.5
q5 -52 13 -103t24 -101q2 -8 6 -16t11 -13q12 -10 26 -10q11 0 19.5 6t12 14.5t2.5 18.5t-9 18z" />
    <glyph glyph-name="g" unicode="g" horiz-adv-x="323" 
d="M196 -149q17 2 34 10.5t28 22.5q13 16 19.5 35.5t9.5 39.5q6 42 6.5 82.5t1.5 82.5v27v41.5v49.5t-0.5 49t-1 41.5t-2.5 26.5q-3 20 -16 30q-10 9 -26 9q-2 0 -4.5 3.5t-4.5 4.5q-19 16 -37 27q-13 8 -29.5 10.5t-30.5 -3.5q-19 -8 -33.5 -24t-26.5 -33
q-23 -33 -40.5 -71.5t-21.5 -79.5q-2 -25 -1.5 -50t8.5 -48q8 -24 30 -35t45 -1q14 6 25 16t21 21q20 23 37.5 47.5t32.5 50.5q0 -61 3 -122t-1 -122q0 -7 -1.5 -17.5t-4 -20.5t-6.5 -18t-11 -11q-6 -3 -19 -2.5t-27.5 2.5t-27.5 4.5t-20 4.5q-11 2 -20 -2.5t-14 -12.5
t-5.5 -18t5.5 -19q7 -11 18 -14q26 -7 53.5 -12.5t54.5 -1.5zM146 347q5 8 10.5 15t11.5 14q10 -5 18 -12.5t18 -12.5q-15 -36 -35 -70.5t-44 -65.5q-8 -9 -15.5 -18.5t-16.5 -17.5q-3 45 12.5 88t40.5 80z" />
    <glyph glyph-name="h" unicode="h" horiz-adv-x="360" 
d="M123 164q8 11 15 26q15 36 27 73t31 72q13 23 27.5 45.5t34.5 39.5q6 -33 5 -66.5t-1 -66.5v-18t0.5 -25t2 -24t5.5 -16q6 -9 15 -13t18 -3t17 6.5t12 15.5q3 8 4 25.5t1 37t-0.5 37.5t-0.5 26l-4 62t-13 60q-4 9 -10.5 17.5t-15.5 13.5q-13 8 -29.5 7t-29.5 -9
q-14 -8 -26 -20t-22 -25q-28 -35 -48.5 -74t-36.5 -81q-2 38 0 77q0 11 1.5 37.5t3.5 56.5t4.5 56.5t5.5 36.5q1 4 2.5 7t1.5 7q1 8 -2 17t-10 14q-11 8 -25 6.5t-22 -12.5t-10.5 -24t-4.5 -26q-11 -60 -16 -119.5t-4 -120.5q1 -26 3 -53.5t10 -53.5q3 -10 8.5 -19.5
t13.5 -16.5q14 -12 32 -9.5t30 16.5z" />
    <glyph glyph-name="i" unicode="i" horiz-adv-x="156" 
d="M95 614q-5 8 -11.5 16.5t-15.5 11.5q-17 6 -31 -4t-14 -27q0 -9 8 -22t15 -18q11 -8 22.5 -6.5t20 8.5t11 18t-4.5 23zM126 117q-10 54 -11.5 107.5t-2.5 107.5v11.5v18.5v18v11q0 2 1 3.5t2 3.5q5 18 -3 29t-21 13.5t-26 -3.5t-19 -23q-2 -5 -3 -18t-2 -27.5t-1 -27.5
v-19q-1 -38 0 -77t5 -77q2 -22 6 -43t13 -41q3 -7 8.5 -13t13.5 -8q13 -5 24.5 -1t18 12.5t6.5 20.5t-9 22z" />
    <glyph glyph-name="i" unicode="&#xef;" horiz-adv-x="156" 
d="M95 614q-5 8 -11.5 16.5t-15.5 11.5q-17 6 -31 -4t-14 -27q0 -9 8 -22t15 -18q11 -8 22.5 -6.5t20 8.5t11 18t-4.5 23zM126 117q-10 54 -11.5 107.5t-2.5 107.5v11.5v18.5v18v11q0 2 1 3.5t2 3.5q5 18 -3 29t-21 13.5t-26 -3.5t-19 -23q-2 -5 -3 -18t-2 -27.5t-1 -27.5
v-19q-1 -38 0 -77t5 -77q2 -22 6 -43t13 -41q3 -7 8.5 -13t13.5 -8q13 -5 24.5 -1t18 12.5t6.5 20.5t-9 22z" />
    <glyph glyph-name="i" unicode="&#xee;" horiz-adv-x="156" 
d="M95 614q-5 8 -11.5 16.5t-15.5 11.5q-17 6 -31 -4t-14 -27q0 -9 8 -22t15 -18q11 -8 22.5 -6.5t20 8.5t11 18t-4.5 23zM126 117q-10 54 -11.5 107.5t-2.5 107.5v11.5v18.5v18v11q0 2 1 3.5t2 3.5q5 18 -3 29t-21 13.5t-26 -3.5t-19 -23q-2 -5 -3 -18t-2 -27.5t-1 -27.5
v-19q-1 -38 0 -77t5 -77q2 -22 6 -43t13 -41q3 -7 8.5 -13t13.5 -8q13 -5 24.5 -1t18 12.5t6.5 20.5t-9 22z" />
    <glyph glyph-name="i" unicode="&#xed;" horiz-adv-x="156" 
d="M95 614q-5 8 -11.5 16.5t-15.5 11.5q-17 6 -31 -4t-14 -27q0 -9 8 -22t15 -18q11 -8 22.5 -6.5t20 8.5t11 18t-4.5 23zM126 117q-10 54 -11.5 107.5t-2.5 107.5v11.5v18.5v18v11q0 2 1 3.5t2 3.5q5 18 -3 29t-21 13.5t-26 -3.5t-19 -23q-2 -5 -3 -18t-2 -27.5t-1 -27.5
v-19q-1 -38 0 -77t5 -77q2 -22 6 -43t13 -41q3 -7 8.5 -13t13.5 -8q13 -5 24.5 -1t18 12.5t6.5 20.5t-9 22z" />
    <glyph glyph-name="i" unicode="&#xec;" horiz-adv-x="156" 
d="M95 614q-5 8 -11.5 16.5t-15.5 11.5q-17 6 -31 -4t-14 -27q0 -9 8 -22t15 -18q11 -8 22.5 -6.5t20 8.5t11 18t-4.5 23zM126 117q-10 54 -11.5 107.5t-2.5 107.5v11.5v18.5v18v11q0 2 1 3.5t2 3.5q5 18 -3 29t-21 13.5t-26 -3.5t-19 -23q-2 -5 -3 -18t-2 -27.5t-1 -27.5
v-19q-1 -38 0 -77t5 -77q2 -22 6 -43t13 -41q3 -7 8.5 -13t13.5 -8q13 -5 24.5 -1t18 12.5t6.5 20.5t-9 22z" />
    <glyph glyph-name="j" unicode="j" horiz-adv-x="332" 
d="M267 597q12 17 3.5 34.5t-29.5 21.5q-10 2 -19.5 -1.5t-15.5 -10.5t-7.5 -16.5t2.5 -19.5q2 -5 5.5 -9.5t8.5 -6.5q12 -5 28 -4t24 12zM249 -105q11 9 18 21.5t12 25.5q7 20 10.5 40t5.5 40q4 38 4.5 75.5t0.5 75.5q-1 58 -3.5 115t-7.5 115q-1 9 -1.5 19t-5.5 18
q-6 11 -16.5 14.5t-20.5 1t-18 -10.5t-9 -20q-1 -5 -1 -18.5t0.5 -29.5t1.5 -30t1 -19q4 -69 6 -137.5t-1 -137.5q0 -9 -1 -24t-3.5 -30.5t-6 -29.5t-9.5 -20q-3 -3 -10 -2t-11 3q-17 6 -32 15t-27 22q-14 14 -24 31t-18 35q-4 8 -8 16.5t-12 13.5q-9 5 -19 4t-17.5 -6
t-11.5 -14t-1 -19q2 -5 8 -19.5t8 -19.5q11 -26 27.5 -49t38.5 -41q21 -17 46.5 -28.5t52.5 -13.5q31 -2 54 18z" />
    <glyph glyph-name="k" unicode="k" horiz-adv-x="341" 
d="M125 85q14 11 15.5 27.5t-11.5 27.5q-4 3 -6.5 14.5t-3.5 16.5q-6 27 -9 50q13 -3 39.5 -4.5t56.5 -1t56.5 3t39.5 5.5q14 4 19.5 15t3 22.5t-11 20t-23.5 7.5q-7 0 -26.5 -1t-41.5 -1.5t-41.5 -1t-26.5 -0.5q28 27 55 55t50 59q2 3 7.5 10.5t12.5 16t12.5 16t7.5 10.5
q8 14 3.5 26t-14.5 18.5t-22.5 5.5t-21.5 -13q-17 -22 -33 -44t-34 -42t-37 -38l-38 -36q-2 45 -1.5 90.5t2.5 91.5q0 3 0.5 9.5t0.5 14v14t-1 9.5q-6 17 -23.5 21.5t-29.5 -7.5q-9 -9 -11.5 -23t-3.5 -27q-2 -49 -4 -98.5t-0.5 -98.5t8 -98t19.5 -96q3 -12 10 -23.5t16 -19
t20 -9t21 5.5z" />
    <glyph glyph-name="l" unicode="l" horiz-adv-x="169" 
d="M146 93q-2 20 -20 28q-7 12 -9 25.5t-4 27.5q-4 38 -4 76t2 76q2 51 5 102.5t6 103.5q3 5 5.5 10t2.5 11q0 9 -7 22t-15 17q-10 5 -21.5 4t-18.5 -8q-8 -8 -11 -17.5t-5 -20.5q-12 -71 -17 -142.5t-3 -143.5q1 -31 2.5 -61.5t8.5 -59.5q4 -20 12 -40.5t22 -35.5
q10 -10 22.5 -12t23 2t17.5 13.5t6 22.5z" />
    <glyph glyph-name="m" unicode="m" horiz-adv-x="505" 
d="M109 97q8 8 12 16q4 6 11.5 24.5t16 40t15.5 40.5t10 25q25 57 59 113q0 -26 -0.5 -50.5t-1.5 -50.5q0 -3 -0.5 -10.5t-0.5 -16t0.5 -16t1.5 -10.5q2 -6 4.5 -12t7.5 -10q10 -8 23 -8t24 9q6 5 10 12t6 15q12 29 22.5 59t24.5 59q9 20 20.5 39.5t25.5 36.5
q5 -26 6.5 -52.5t2.5 -53.5q0 -8 1 -29t1.5 -45t0.5 -45.5t-2 -29.5q-2 -13 4 -22.5t15.5 -14t21 -2.5t19.5 12q6 8 8 17.5t3 19.5q2 60 0.5 119.5t-10.5 119.5q-3 17 -8 33t-16 30t-28 18.5t-33 -3.5q-16 -7 -28 -19.5t-22 -26.5t-18.5 -28t-15.5 -30q-1 17 -2 32.5
t-6 30.5q-7 24 -30 31t-42 -10q-17 -15 -29.5 -35t-23.5 -40q-20 -35 -38 -72t-33 -75q-2 40 0 79t7 78q1 2 0.5 3.5t1.5 2.5q12 6 16 16.5t2 21t-10.5 18t-21.5 7.5q-6 0 -11.5 -1t-10.5 -3q-11 -3 -19 -14t-11 -22q-7 -26 -10 -52t-5 -52q-4 -48 -3 -96t15 -93
q4 -12 12 -21t18 -13.5t21 -3.5t20 10z" />
    <glyph glyph-name="n" unicode="n" horiz-adv-x="370" 
d="M113 92q9 11 14 25l10 28q14 41 28 80.5t36 75.5q12 20 26 38.5t33 32.5q7 -23 8 -42q5 -37 7 -74t3 -74q0 -12 0.5 -25t8.5 -23q13 -15 32.5 -11.5t26.5 22.5q5 13 4.5 40t-2.5 57.5t-5.5 58.5t-5.5 41q-3 18 -7.5 36t-12.5 34q-8 14 -22 23.5t-29 8.5q-14 0 -28 -7
t-25 -16q-43 -36 -70.5 -86.5t-47.5 -103.5q-2 34 -3 67.5t5 67.5q1 6 1.5 12.5t5.5 11.5q10 12 7 28t-17 22q-17 8 -33 -1t-24 -27q-6 -16 -8.5 -32t-4.5 -33q-2 -28 -2 -55t2 -55q1 -29 3.5 -58.5t8.5 -58.5q3 -11 9 -22.5t17 -17.5q13 -8 27 -4.5t24 16.5z" />
    <glyph glyph-name="n" unicode="&#xf1;" horiz-adv-x="370" 
d="M113 92q9 11 14 25l10 28q14 41 28 80.5t36 75.5q12 20 26 38.5t33 32.5q7 -23 8 -42q5 -37 7 -74t3 -74q0 -12 0.5 -25t8.5 -23q13 -15 32.5 -11.5t26.5 22.5q5 13 4.5 40t-2.5 57.5t-5.5 58.5t-5.5 41q-3 18 -7.5 36t-12.5 34q-8 14 -22 23.5t-29 8.5q-14 0 -28 -7
t-25 -16q-43 -36 -70.5 -86.5t-47.5 -103.5q-2 34 -3 67.5t5 67.5q1 6 1.5 12.5t5.5 11.5q10 12 7 28t-17 22q-17 8 -33 -1t-24 -27q-6 -16 -8.5 -32t-4.5 -33q-2 -28 -2 -55t2 -55q1 -29 3.5 -58.5t8.5 -58.5q3 -11 9 -22.5t17 -17.5q13 -8 27 -4.5t24 16.5z" />
    <glyph glyph-name="o" unicode="o" horiz-adv-x="292" 
d="M120 52q20 5 37 17.5t31 27.5q18 20 32.5 42t25.5 46q10 20 17.5 40t11.5 42q4 20 1.5 40.5t-11.5 37.5q-14 26 -39 38q-23 11 -49 14.5t-52 4.5h-14.5t-13.5 -2q-8 -3 -14.5 -10.5t-7.5 -15.5t-6 -13.5t-9 -11.5q-21 -32 -31.5 -68.5t-10.5 -74.5q0 -32 6 -66t25 -60
q11 -17 31 -25t40 -3zM92 177q-5 29 -0.5 60t17.5 57l5 10t7 12t8 10.5t8 5.5q14 3 28 0.5t27 -7.5q12 -5 15.5 -14.5t3 -21.5t-5 -25t-9.5 -24q-5 -12 -15 -30.5t-22.5 -36.5t-26 -32t-25.5 -17q-8 12 -10.5 25.5t-4.5 27.5z" />
    <glyph glyph-name="o" unicode="&#xf8;" horiz-adv-x="292" 
d="M120 52q20 5 37 17.5t31 27.5q18 20 32.5 42t25.5 46q10 20 17.5 40t11.5 42q4 20 1.5 40.5t-11.5 37.5q-14 26 -39 38q-23 11 -49 14.5t-52 4.5h-14.5t-13.5 -2q-8 -3 -14.5 -10.5t-7.5 -15.5t-6 -13.5t-9 -11.5q-21 -32 -31.5 -68.5t-10.5 -74.5q0 -32 6 -66t25 -60
q11 -17 31 -25t40 -3zM92 177q-5 29 -0.5 60t17.5 57l5 10t7 12t8 10.5t8 5.5q14 3 28 0.5t27 -7.5q12 -5 15.5 -14.5t3 -21.5t-5 -25t-9.5 -24q-5 -12 -15 -30.5t-22.5 -36.5t-26 -32t-25.5 -17q-8 12 -10.5 25.5t-4.5 27.5z" />
    <glyph glyph-name="o" unicode="&#xf6;" horiz-adv-x="292" 
d="M120 52q20 5 37 17.5t31 27.5q18 20 32.5 42t25.5 46q10 20 17.5 40t11.5 42q4 20 1.5 40.5t-11.5 37.5q-14 26 -39 38q-23 11 -49 14.5t-52 4.5h-14.5t-13.5 -2q-8 -3 -14.5 -10.5t-7.5 -15.5t-6 -13.5t-9 -11.5q-21 -32 -31.5 -68.5t-10.5 -74.5q0 -32 6 -66t25 -60
q11 -17 31 -25t40 -3zM92 177q-5 29 -0.5 60t17.5 57l5 10t7 12t8 10.5t8 5.5q14 3 28 0.5t27 -7.5q12 -5 15.5 -14.5t3 -21.5t-5 -25t-9.5 -24q-5 -12 -15 -30.5t-22.5 -36.5t-26 -32t-25.5 -17q-8 12 -10.5 25.5t-4.5 27.5z" />
    <glyph glyph-name="o" unicode="&#xf5;" horiz-adv-x="292" 
d="M120 52q20 5 37 17.5t31 27.5q18 20 32.5 42t25.5 46q10 20 17.5 40t11.5 42q4 20 1.5 40.5t-11.5 37.5q-14 26 -39 38q-23 11 -49 14.5t-52 4.5h-14.5t-13.5 -2q-8 -3 -14.5 -10.5t-7.5 -15.5t-6 -13.5t-9 -11.5q-21 -32 -31.5 -68.5t-10.5 -74.5q0 -32 6 -66t25 -60
q11 -17 31 -25t40 -3zM92 177q-5 29 -0.5 60t17.5 57l5 10t7 12t8 10.5t8 5.5q14 3 28 0.5t27 -7.5q12 -5 15.5 -14.5t3 -21.5t-5 -25t-9.5 -24q-5 -12 -15 -30.5t-22.5 -36.5t-26 -32t-25.5 -17q-8 12 -10.5 25.5t-4.5 27.5z" />
    <glyph glyph-name="o" unicode="&#xf4;" horiz-adv-x="292" 
d="M120 52q20 5 37 17.5t31 27.5q18 20 32.5 42t25.5 46q10 20 17.5 40t11.5 42q4 20 1.5 40.5t-11.5 37.5q-14 26 -39 38q-23 11 -49 14.5t-52 4.5h-14.5t-13.5 -2q-8 -3 -14.5 -10.5t-7.5 -15.5t-6 -13.5t-9 -11.5q-21 -32 -31.5 -68.5t-10.5 -74.5q0 -32 6 -66t25 -60
q11 -17 31 -25t40 -3zM92 177q-5 29 -0.5 60t17.5 57l5 10t7 12t8 10.5t8 5.5q14 3 28 0.5t27 -7.5q12 -5 15.5 -14.5t3 -21.5t-5 -25t-9.5 -24q-5 -12 -15 -30.5t-22.5 -36.5t-26 -32t-25.5 -17q-8 12 -10.5 25.5t-4.5 27.5z" />
    <glyph glyph-name="o" unicode="&#xf3;" horiz-adv-x="292" 
d="M120 52q20 5 37 17.5t31 27.5q18 20 32.5 42t25.5 46q10 20 17.5 40t11.5 42q4 20 1.5 40.5t-11.5 37.5q-14 26 -39 38q-23 11 -49 14.5t-52 4.5h-14.5t-13.5 -2q-8 -3 -14.5 -10.5t-7.5 -15.5t-6 -13.5t-9 -11.5q-21 -32 -31.5 -68.5t-10.5 -74.5q0 -32 6 -66t25 -60
q11 -17 31 -25t40 -3zM92 177q-5 29 -0.5 60t17.5 57l5 10t7 12t8 10.5t8 5.5q14 3 28 0.5t27 -7.5q12 -5 15.5 -14.5t3 -21.5t-5 -25t-9.5 -24q-5 -12 -15 -30.5t-22.5 -36.5t-26 -32t-25.5 -17q-8 12 -10.5 25.5t-4.5 27.5z" />
    <glyph glyph-name="o" unicode="&#xf2;" horiz-adv-x="292" 
d="M120 52q20 5 37 17.5t31 27.5q18 20 32.5 42t25.5 46q10 20 17.5 40t11.5 42q4 20 1.5 40.5t-11.5 37.5q-14 26 -39 38q-23 11 -49 14.5t-52 4.5h-14.5t-13.5 -2q-8 -3 -14.5 -10.5t-7.5 -15.5t-6 -13.5t-9 -11.5q-21 -32 -31.5 -68.5t-10.5 -74.5q0 -32 6 -66t25 -60
q11 -17 31 -25t40 -3zM92 177q-5 29 -0.5 60t17.5 57l5 10t7 12t8 10.5t8 5.5q14 3 28 0.5t27 -7.5q12 -5 15.5 -14.5t3 -21.5t-5 -25t-9.5 -24q-5 -12 -15 -30.5t-22.5 -36.5t-26 -32t-25.5 -17q-8 12 -10.5 25.5t-4.5 27.5z" />
    <glyph glyph-name="p" unicode="p" horiz-adv-x="405" 
d="M131 -161q7 8 9 18t2 21q-1 45 -3.5 89.5t-1.5 89.5q27 8 52 19.5t48 25.5q35 20 65.5 45.5t53.5 57.5q15 22 24.5 48t8.5 52q-2 46 -30 80q-24 29 -62 35q-19 4 -38.5 0t-36.5 -12q-23 -11 -42.5 -29.5t-33.5 -39.5q-17 -24 -29 -51t-20 -55q0 4 -1 17t-1.5 28t-1 28
t-0.5 17q13 12 12 29t-18 25q-9 5 -21 5t-21 -5t-14 -16t-6 -22v-47q2 -91 6.5 -181.5t19.5 -180.5q1 -5 3.5 -17t5.5 -25t6 -25t6 -16q9 -17 28 -19.5t31 11.5zM181 265q13 26 32 50t46 35q10 4 21.5 3.5t19.5 -6.5q11 -9 16.5 -25t3.5 -30q-3 -23 -17 -44t-32 -38
q-27 -26 -60 -44.5t-68 -32.5q5 34 14 67.5t24 64.5z" />
    <glyph glyph-name="q" unicode="q" horiz-adv-x="330" 
d="M315 -148q-2 2 -3 2.5t-2 2.5q-3 7 -4 14t-3 14q-2 14 -3 28l-2 28q-3 75 -1 149t7 149q0 7 1 21t1 29.5t-0.5 29.5t-3.5 20q-6 14 -19 20q-6 12 -19 17q-8 3 -15.5 7t-15.5 7q-23 10 -52 7q-14 -2 -27 -8.5t-24 -14.5q-20 -14 -36 -33.5t-30 -39.5q-20 -30 -31 -65
t-14 -70q-2 -27 2 -55.5t20 -51.5q11 -15 30 -20t36 3q14 5 25 15t20 21q23 27 42 57t36 61q-3 -45 -4.5 -89t-0.5 -89q0 -35 1 -70.5t6 -70.5q2 -15 5.5 -29.5t11.5 -28.5q5 -8 12.5 -15.5t16.5 -10.5q14 -5 25.5 0t18 15t5.5 22.5t-12 21.5zM105 218q11 26 27.5 48.5
t36.5 41.5q6 5 11.5 10t13.5 7q7 2 13.5 -0.5t12.5 -4.5q-24 -46 -48.5 -91.5t-55.5 -87.5q-5 -8 -10.5 -14.5t-12.5 -12.5q-5 26 -2 53t14 51z" />
    <glyph glyph-name="r" unicode="r" horiz-adv-x="284" 
d="M112 68q8 10 10.5 22t4.5 24q5 29 8.5 58.5t11.5 58.5q5 16 11.5 31t17.5 26q15 14 37 17h16.5t17.5 1q14 3 20.5 12.5t6.5 20.5t-6.5 20.5t-20.5 12.5q-30 5 -62 -3.5t-54 -29.5q-14 -13 -23.5 -29t-16.5 -33q0 3 -0.5 11.5t-0.5 18v18v11.5q12 14 9 27.5t-13.5 21
t-25.5 6.5t-27 -15q-9 -12 -11 -31q-3 -36 -2 -72t3 -71q1 -15 2.5 -37t5.5 -44t12 -39.5t21 -23.5q29 -14 48 10z" />
    <glyph glyph-name="s" unicode="s" horiz-adv-x="296" 
d="M248 60q19 6 29.5 22.5t2.5 34.5q-7 14 -17 21q-28 20 -58.5 34t-58.5 33q-5 4 -11.5 9t-11.5 11t-7.5 12.5t-0.5 12.5q4 12 11 22t16 19q2 2 8 7t9 6q3 0 9.5 -0.5t13.5 -1.5t13.5 -2.5t9.5 -1.5q13 0 26 2t21 12q8 13 6 27t-16 22q-6 4 -13 4t-14 1q-13 1 -24.5 3
t-23.5 4q-20 2 -38.5 -7.5t-32.5 -22.5q-18 -17 -32.5 -38.5t-19.5 -45.5q-4 -22 4 -44t23 -38q19 -20 42.5 -35t48.5 -28q-6 -1 -20 -3t-29.5 -4t-29 -2.5t-19.5 1.5q-5 2 -11 3.5t-11 -0.5q-18 -3 -25.5 -20t2.5 -31q9 -15 28 -20q14 -4 41.5 -2.5t58.5 5.5t59 9.5t42 9.5
z" />
    <glyph glyph-name="t" unicode="t" horiz-adv-x="285" 
d="M220 43q2 1 8 4.5t13 7.5t12.5 8t7.5 6q12 10 12 22.5t-7 22t-19 13t-25 -4.5q-4 -2 -13 -7.5t-19 -10.5l-19 -9.5t-13 -5.5q-4 9 -7 29.5t-4.5 43.5t-2 44t-0.5 31q18 4 35.5 7.5t34.5 7.5q15 3 22 13.5t6 22t-9.5 21t-23.5 9.5q-3 0 -12 -1.5t-19.5 -3.5t-19.5 -3.5
t-12 -2.5q1 8 1.5 16t2.5 16q9 5 14 12.5t5.5 16.5t-3.5 17t-13 13q-8 5 -18 4.5t-19.5 -4.5t-16.5 -11.5t-10 -16.5q-5 -19 -7.5 -38t-4.5 -39q-2 0 -7.5 -1t-12.5 -2t-12.5 -2t-7.5 -1q-14 -4 -20.5 -15t-5.5 -22t9.5 -20t23.5 -9q3 0 15.5 1.5t15.5 1.5q0 -30 1 -60.5
t6 -59.5q3 -17 8.5 -33.5t17.5 -29.5q9 -9 21.5 -15t25.5 -6q17 1 33.5 7.5t31.5 15.5z" />
    <glyph glyph-name="u" unicode="u" horiz-adv-x="343" 
d="M325 123q-2 6 -4.5 12.5t-4.5 12.5q-5 23 -7 52q-1 11 -2.5 37t-3 55t-4.5 54.5t-7 35.5q-7 17 -23 24.5t-32 -1.5q-11 -6 -18 -17.5t-12 -22.5q-20 -39 -38.5 -77.5t-42.5 -74.5q-7 -11 -19 -23q-8 14 -11 30.5t-5 33.5q-2 23 -2 46.5t1 46.5q1 11 2.5 22.5t5.5 22.5
q16 6 21 23q4 14 -2 24.5t-17 15t-23.5 3t-22.5 -11.5q-13 -13 -20 -33q-6 -17 -8.5 -34.5t-3.5 -35.5q-2 -23 -2 -46.5t2 -46.5t7 -46.5t16 -43.5q5 -11 12.5 -20t18.5 -14q23 -12 49 -3q13 5 23.5 13.5t18.5 19.5q20 26 36 55t30 58q2 -26 3 -51.5t5 -51.5q1 -9 4 -22
t8 -25t11.5 -22t15.5 -13t18.5 -1t16 7.5t10 14t0.5 18.5z" />
    <glyph glyph-name="u" unicode="&#xfc;" horiz-adv-x="343" 
d="M325 123q-2 6 -4.5 12.5t-4.5 12.5q-5 23 -7 52q-1 11 -2.5 37t-3 55t-4.5 54.5t-7 35.5q-7 17 -23 24.5t-32 -1.5q-11 -6 -18 -17.5t-12 -22.5q-20 -39 -38.5 -77.5t-42.5 -74.5q-7 -11 -19 -23q-8 14 -11 30.5t-5 33.5q-2 23 -2 46.5t1 46.5q1 11 2.5 22.5t5.5 22.5
q16 6 21 23q4 14 -2 24.5t-17 15t-23.5 3t-22.5 -11.5q-13 -13 -20 -33q-6 -17 -8.5 -34.5t-3.5 -35.5q-2 -23 -2 -46.5t2 -46.5t7 -46.5t16 -43.5q5 -11 12.5 -20t18.5 -14q23 -12 49 -3q13 5 23.5 13.5t18.5 19.5q20 26 36 55t30 58q2 -26 3 -51.5t5 -51.5q1 -9 4 -22
t8 -25t11.5 -22t15.5 -13t18.5 -1t16 7.5t10 14t0.5 18.5z" />
    <glyph glyph-name="u" unicode="&#xfb;" horiz-adv-x="343" 
d="M325 123q-2 6 -4.5 12.5t-4.5 12.5q-5 23 -7 52q-1 11 -2.5 37t-3 55t-4.5 54.5t-7 35.5q-7 17 -23 24.5t-32 -1.5q-11 -6 -18 -17.5t-12 -22.5q-20 -39 -38.5 -77.5t-42.5 -74.5q-7 -11 -19 -23q-8 14 -11 30.5t-5 33.5q-2 23 -2 46.5t1 46.5q1 11 2.5 22.5t5.5 22.5
q16 6 21 23q4 14 -2 24.5t-17 15t-23.5 3t-22.5 -11.5q-13 -13 -20 -33q-6 -17 -8.5 -34.5t-3.5 -35.5q-2 -23 -2 -46.5t2 -46.5t7 -46.5t16 -43.5q5 -11 12.5 -20t18.5 -14q23 -12 49 -3q13 5 23.5 13.5t18.5 19.5q20 26 36 55t30 58q2 -26 3 -51.5t5 -51.5q1 -9 4 -22
t8 -25t11.5 -22t15.5 -13t18.5 -1t16 7.5t10 14t0.5 18.5z" />
    <glyph glyph-name="u" unicode="&#xfa;" horiz-adv-x="343" 
d="M325 123q-2 6 -4.5 12.5t-4.5 12.5q-5 23 -7 52q-1 11 -2.5 37t-3 55t-4.5 54.5t-7 35.5q-7 17 -23 24.5t-32 -1.5q-11 -6 -18 -17.5t-12 -22.5q-20 -39 -38.5 -77.5t-42.5 -74.5q-7 -11 -19 -23q-8 14 -11 30.5t-5 33.5q-2 23 -2 46.5t1 46.5q1 11 2.5 22.5t5.5 22.5
q16 6 21 23q4 14 -2 24.5t-17 15t-23.5 3t-22.5 -11.5q-13 -13 -20 -33q-6 -17 -8.5 -34.5t-3.5 -35.5q-2 -23 -2 -46.5t2 -46.5t7 -46.5t16 -43.5q5 -11 12.5 -20t18.5 -14q23 -12 49 -3q13 5 23.5 13.5t18.5 19.5q20 26 36 55t30 58q2 -26 3 -51.5t5 -51.5q1 -9 4 -22
t8 -25t11.5 -22t15.5 -13t18.5 -1t16 7.5t10 14t0.5 18.5z" />
    <glyph glyph-name="u" unicode="&#xf9;" horiz-adv-x="343" 
d="M325 123q-2 6 -4.5 12.5t-4.5 12.5q-5 23 -7 52q-1 11 -2.5 37t-3 55t-4.5 54.5t-7 35.5q-7 17 -23 24.5t-32 -1.5q-11 -6 -18 -17.5t-12 -22.5q-20 -39 -38.5 -77.5t-42.5 -74.5q-7 -11 -19 -23q-8 14 -11 30.5t-5 33.5q-2 23 -2 46.5t1 46.5q1 11 2.5 22.5t5.5 22.5
q16 6 21 23q4 14 -2 24.5t-17 15t-23.5 3t-22.5 -11.5q-13 -13 -20 -33q-6 -17 -8.5 -34.5t-3.5 -35.5q-2 -23 -2 -46.5t2 -46.5t7 -46.5t16 -43.5q5 -11 12.5 -20t18.5 -14q23 -12 49 -3q13 5 23.5 13.5t18.5 19.5q20 26 36 55t30 58q2 -26 3 -51.5t5 -51.5q1 -9 4 -22
t8 -25t11.5 -22t15.5 -13t18.5 -1t16 7.5t10 14t0.5 18.5z" />
    <glyph glyph-name="v" unicode="v" horiz-adv-x="300" 
d="M144 105q13 4 25 18q3 3 8.5 10.5t11 16t10.5 16.5t7 11q20 35 38 73t30 77q2 6 5 19t5 26.5t3 26.5t-1 19q-5 20 -23.5 25.5t-32.5 -8.5q-9 -9 -9 -19q-2 -23 -6 -45t-12 -44q-13 -36 -30.5 -70.5t-38.5 -66.5q-14 46 -26 92t-24 93q-5 19 -18 25.5t-25 3t-20.5 -16
t-4.5 -31.5q10 -48 21.5 -96t28.5 -95q5 -14 12 -28t18 -24q21 -18 48 -8z" />
    <glyph glyph-name="w" unicode="w" horiz-adv-x="542" 
d="M82 137q14 7 27 16t24 20q25 21 47.5 43t45.5 45q7 8 13.5 15t13.5 14q11 -20 21 -39t24 -36q11 -12 24.5 -21t28.5 -12q13 -2 26 -0.5t25 6.5q22 8 40.5 22.5t33.5 32.5q25 29 38.5 67.5t11.5 76.5q0 17 -3 35.5t-12 33.5q-6 8 -14.5 15.5t-18 13t-20 7t-19.5 -1.5
q-10 -3 -15.5 -11t-6.5 -17t3.5 -18t13.5 -15q2 -1 8.5 -3.5t8.5 -4.5q5 -3 6 -14t1 -17q1 -19 -3 -38t-12 -36q-17 -34 -48 -54q-7 -5 -17.5 -8.5t-16.5 0.5q-5 4 -13.5 16.5t-16.5 27.5t-15.5 28t-11.5 18q-9 11 -24.5 18t-29.5 3q-23 -6 -40 -24.5t-34 -35.5
q-20 -20 -41 -40t-43 -39q1 8 4.5 33.5t7.5 54.5t7 54.5t4 33.5t-1 16.5t-7 14.5q-12 15 -31 11.5t-26 -21.5q-4 -13 -10 -44t-10.5 -65.5t-8 -66t-3.5 -45.5q0 -13 0.5 -26t7.5 -24q9 -14 25 -18.5t31 3.5z" />
    <glyph glyph-name="x" unicode="x" horiz-adv-x="379" 
d="M304 153q2 12 -4 21q-4 6 -18 21.5t-29.5 32.5t-30 32t-19.5 21q37 36 74.5 70.5t78.5 65.5q12 9 13 22t-6 22.5t-19 14t-25 -3.5q-10 -6 -33.5 -26t-48.5 -43t-47.5 -44t-31.5 -29l-34 40t-34 41q0 29 -27 34q-9 2 -19 0.5t-18 -7.5q-11 -9 -12 -24.5t7 -27.5
q20 -28 40.5 -55t42.5 -53l-12.5 -12.5t-17.5 -18.5t-16.5 -19t-9.5 -14q-4 -12 0 -22t12.5 -16t19.5 -6.5t20 7.5q3 2 10 9.5t15 15.5t14.5 15.5t9.5 9.5q23 -26 48 -50t51 -47q16 -14 35 -6t21 29z" />
    <glyph glyph-name="y" unicode="y" horiz-adv-x="312" 
d="M207 -79v3q8 41 16 81t17 81q3 11 10.5 44t16 70.5t16 70.5t8.5 45q0 2 0.5 4t0.5 4q7 17 -0.5 34t-25.5 21q-6 2 -13.5 1t-12.5 -5q-10 -7 -16 -17t-13 -20q-14 -18 -30 -34.5t-36 -26.5q-2 -2 -6.5 -3.5t-6.5 0.5q-5 2 -13.5 14t-12.5 17q-1 3 -5 10t-8.5 14.5t-8 15
t-4.5 10.5q-2 8 0.5 17t0.5 18q-2 12 -10 19t-17.5 8.5t-19 -2.5t-14.5 -15q-4 -8 -5.5 -26t0.5 -26q2 -17 9 -32t15 -30q14 -27 31 -48q6 -8 13.5 -14.5t16.5 -11.5q25 -13 49 -7q14 3 26 8.5t23 13.5q-15 -56 -27.5 -111.5t-22.5 -112.5q-1 -5 -3 -17.5t-4 -26.5t-3 -26.5
t0 -18.5q3 -15 14.5 -22t23.5 -5.5t21.5 10t9.5 24.5z" />
    <glyph glyph-name="y" unicode="&#xff;" horiz-adv-x="312" 
d="M207 -79v3q8 41 16 81t17 81q3 11 10.5 44t16 70.5t16 70.5t8.5 45q0 2 0.5 4t0.5 4q7 17 -0.5 34t-25.5 21q-6 2 -13.5 1t-12.5 -5q-10 -7 -16 -17t-13 -20q-14 -18 -30 -34.5t-36 -26.5q-2 -2 -6.5 -3.5t-6.5 0.5q-5 2 -13.5 14t-12.5 17q-1 3 -5 10t-8.5 14.5t-8 15
t-4.5 10.5q-2 8 0.5 17t0.5 18q-2 12 -10 19t-17.5 8.5t-19 -2.5t-14.5 -15q-4 -8 -5.5 -26t0.5 -26q2 -17 9 -32t15 -30q14 -27 31 -48q6 -8 13.5 -14.5t16.5 -11.5q25 -13 49 -7q14 3 26 8.5t23 13.5q-15 -56 -27.5 -111.5t-22.5 -112.5q-1 -5 -3 -17.5t-4 -26.5t-3 -26.5
t0 -18.5q3 -15 14.5 -22t23.5 -5.5t21.5 10t9.5 24.5z" />
    <glyph glyph-name="y" unicode="&#xfd;" horiz-adv-x="312" 
d="M207 -79v3q8 41 16 81t17 81q3 11 10.5 44t16 70.5t16 70.5t8.5 45q0 2 0.5 4t0.5 4q7 17 -0.5 34t-25.5 21q-6 2 -13.5 1t-12.5 -5q-10 -7 -16 -17t-13 -20q-14 -18 -30 -34.5t-36 -26.5q-2 -2 -6.5 -3.5t-6.5 0.5q-5 2 -13.5 14t-12.5 17q-1 3 -5 10t-8.5 14.5t-8 15
t-4.5 10.5q-2 8 0.5 17t0.5 18q-2 12 -10 19t-17.5 8.5t-19 -2.5t-14.5 -15q-4 -8 -5.5 -26t0.5 -26q2 -17 9 -32t15 -30q14 -27 31 -48q6 -8 13.5 -14.5t16.5 -11.5q25 -13 49 -7q14 3 26 8.5t23 13.5q-15 -56 -27.5 -111.5t-22.5 -112.5q-1 -5 -3 -17.5t-4 -26.5t-3 -26.5
t0 -18.5q3 -15 14.5 -22t23.5 -5.5t21.5 10t9.5 24.5z" />
    <glyph glyph-name="z" unicode="z" horiz-adv-x="355" 
d="M126 46q6 2 23 7.5t36.5 11.5t37 11.5t22.5 6.5q13 4 26 6.5t26 1.5q2 0 7 -1t7 0q14 1 22.5 9.5t10 19t-3.5 21t-18 15.5q-16 5 -33.5 5.5t-34.5 -2.5q-38 -6 -74 -18.5t-74 -21.5q20 30 41 59.5t38 61.5q20 35 30 72q6 19 8.5 39.5t-2.5 40.5q-6 21 -26 30t-42 3
q-22 -5 -42.5 -15.5t-39.5 -23.5q-11 -7 -21 -14.5t-17 -17.5q-6 -8 -9 -19.5t2 -20.5q8 -17 26 -20t30 11q4 5 13.5 12t20.5 14t21.5 13t15.5 8q-5 -27 -15.5 -52t-24.5 -48q-17 -29 -36.5 -56t-37.5 -55q-7 -10 -12.5 -20.5t-8.5 -22.5q-5 -22 8 -39.5t35 -20.5
q17 -2 33 1t32 8z" />
    <glyph glyph-name="asciitilde" unicode="~" horiz-adv-x="426" 
d="M267 239q32 6 60.5 20.5t57.5 30.5q9 5 13.5 13t4 17t-5.5 17t-14 12q-5 2 -10 3t-10 -1q-4 -1 -13 -5.5t-19.5 -9.5t-19.5 -9.5t-12 -6.5q-14 -6 -28.5 -12t-30.5 -5q-7 1 -12.5 4.5t-10.5 8.5q-16 15 -28 33.5t-29 32.5q-9 7 -20.5 11.5t-23.5 4.5t-24 -4.5t-21 -13.5
q-15 -15 -25 -35t-15 -41q-2 -11 -5 -22t1 -22q4 -10 12 -15.5t17 -6.5t18 3.5t13 14.5q5 8 6 17t3 18q2 7 8 20.5t11 18.5q5 -3 8 -6.5t6 -7.5q14 -18 29 -36t35 -30q16 -10 35.5 -12.5t38.5 1.5z" />
    <glyph glyph-name="uni00A0" unicode="&#xa0;" horiz-adv-x="250" 
 />
    <glyph glyph-name="uni00AD" unicode="&#xad;" 
 />
    <glyph glyph-name="multiply" unicode="&#xd7;" horiz-adv-x="381" 
d="M85 219q2 2 7 8t7 8q16 19 32.5 37.5t33.5 35.5q5 -5 18 -17t27.5 -24.5t27.5 -24t19 -14.5q9 -5 18.5 -4.5t17 5t12 13t3.5 18.5q-1 5 -2.5 10.5t-5.5 9.5q-4 3 -15.5 14t-24.5 24t-24.5 24t-15.5 14q26 20 53.5 36.5t58.5 25.5q11 3 16.5 11t6.5 17t-3.5 18t-13.5 15
q-11 6 -24 3t-25 -8q-32 -13 -61 -31.5t-57 -40.5q-13 12 -25 24.5t-23 25.5q-4 5 -9.5 9t-10.5 7q-11 6 -22 4t-18.5 -9.5t-9.5 -18t4 -21.5q11 -20 27 -36l32 -32l-17.5 -17.5t-25.5 -27.5t-24.5 -28.5t-14.5 -19.5q-7 -12 -4 -24t11.5 -19t20.5 -8t23 8z" />
    <glyph glyph-name="divide" unicode="&#xf7;" horiz-adv-x="348" 
d="M173 513l-4 4q-7 19 -26 21.5t-34 -9.5q-11 -10 -13 -25t9 -26q6 -5 20 -13t22 -8q11 0 19 5.5t12 14t3 18.5t-8 18zM65 307q49 2 97.5 11t96.5 19q3 1 10 2.5t15 3.5t15 4t10 4q12 8 15 20t-1 22t-14.5 16.5t-24.5 4.5q-54 -8 -106 -19t-106 -18q-2 0 -8 -0.5t-8 -0.5
q-11 -2 -20.5 -9t-12.5 -18q-5 -17 5 -30t27 -13q7 0 10 1zM229 185q2 5 1.5 9.5t-0.5 9.5q0 18 -14.5 29t-31.5 3q-11 -5 -16.5 -14.5t-6 -20t4.5 -20.5t16 -15q14 -6 28.5 -1t18.5 20z" />
    <glyph glyph-name="minus" unicode="&#x2212;" horiz-adv-x="363" 
d="M72 304q1 1 6 1q10 1 41.5 2t67.5 2.5t68 2.5t42 2q9 0 18.5 1.5t16.5 7.5q9 7 11.5 17t0 19.5t-10 16.5t-18.5 8h-20.5t-32.5 -1t-32.5 -2t-21.5 -1q-8 0 -30 -1t-47.5 -2t-48 -2.5t-30.5 -3.5q-20 -4 -28.5 -21.5t2.5 -34.5q8 -11 21.5 -15t24.5 4z" />
    <glyph glyph-name="uni2400" 
 />
    </font>
</defs>
</svg>
